<?xml version="1.0" standalone="no"?>
<!DOCTYPE svg PUBLIC "-//W3C//DTD SVG 20010904//EN"
 "http://www.w3.org/TR/2001/REC-SVG-20010904/DTD/svg10.dtd">
<svg version="1.0" xmlns="http://www.w3.org/2000/svg"
 width="512.000000pt" height="512.000000pt" viewBox="0 0 512.000000 512.000000"
 preserveAspectRatio="xMidYMid meet">

<g transform="translate(0.000000,512.000000) scale(0.100000,-0.100000)"
fill="#000000" stroke="none">
<path d="M2389 5030 c-615 -47 -1165 -301 -1593 -735 -746 -756 -925 -1914
-441 -2860 101 -198 203 -347 362 -527 l85 -98 47 41 c49 44 156 102 207 113
17 4 238 94 490 199 l459 192 23 110 c13 61 29 113 34 116 16 10 3 135 -16
161 -9 13 -46 57 -81 98 -91 104 -147 221 -191 395 -19 77 -40 156 -45 176 -8
34 -12 36 -47 36 -146 0 -281 213 -282 444 0 129 42 224 110 248 39 13 38 14
85 -186 l39 -163 38 0 c38 0 39 1 34 33 -8 49 -15 144 -26 340 l-10 178 99
127 c54 70 119 141 143 159 98 70 233 100 406 90 175 -11 242 -25 782 -167
171 -46 271 -59 319 -42 l32 11 -6 -107 c-7 -140 -25 -555 -25 -593 0 -27 3
-29 35 -29 43 0 41 -5 85 198 32 144 35 152 58 152 37 0 88 -58 106 -120 71
-238 -85 -573 -266 -573 -35 0 -39 -2 -47 -36 -103 -399 -128 -457 -277 -620
l-59 -64 -3 -74 c-3 -43 0 -73 6 -73 5 0 19 -51 32 -113 l22 -112 462 -192
c253 -105 484 -199 512 -208 61 -19 157 -75 200 -116 l30 -29 78 87 c347 389
552 835 622 1348 21 159 21 469 -1 630 -74 552 -318 1048 -706 1436 -272 272
-600 475 -968 598 -292 98 -655 144 -952 121z"/>
</g>
</svg>
