<svg id="splitsvg" version="1.1" xmlns="http://www.w3.org/2000/svg" xmlns:xlink="http://www.w3.org/1999/xlink" width="1380" height="860"><g id="svgg"><path id="path0" d="M170.103 112.398 C 160.281 113.436,151.492 117.227,146.000 122.794 C 142.960 125.875,134.841 134.597,132.870 136.899 L 131.243 138.799 131.435 145.899 C 131.541 149.805,131.722 153.720,131.839 154.600 C 131.955 155.480,132.217 158.990,132.421 162.400 C 132.624 165.810,132.989 170.940,133.231 173.800 C 133.472 176.660,133.699 179.720,133.735 180.600 L 133.800 182.200 130.500 182.316 C 127.438 182.424,127.200 182.375,127.200 181.640 C 127.200 181.204,127.020 180.736,126.800 180.600 C 126.580 180.464,126.400 179.744,126.400 179.000 C 126.400 178.256,126.239 177.548,126.042 177.426 C 125.845 177.305,125.571 176.439,125.433 175.503 C 124.818 171.345,124.695 170.782,124.358 170.574 C 124.161 170.452,124.000 169.744,124.000 169.000 C 124.000 168.256,123.839 167.548,123.642 167.426 C 123.445 167.305,123.171 166.439,123.033 165.503 C 122.418 161.345,122.295 160.782,121.958 160.574 C 121.761 160.452,121.600 159.744,121.600 159.000 C 121.600 158.256,121.420 157.536,121.200 157.400 C 120.980 157.264,120.800 156.623,120.800 155.976 C 120.800 154.645,120.489 154.572,118.201 155.369 C 113.126 157.134,109.600 164.855,109.600 174.200 C 109.600 177.820,110.738 184.453,112.071 188.600 C 115.875 200.433,123.852 208.400,131.897 208.400 L 135.044 208.400 136.171 213.100 C 136.790 215.685,137.455 218.475,137.649 219.300 C 139.122 225.591,140.703 231.700,141.193 233.000 C 141.359 233.440,141.900 235.060,142.394 236.600 C 144.252 242.385,149.266 251.186,153.147 255.472 C 153.510 255.872,154.795 257.353,156.003 258.762 C 157.212 260.171,159.055 262.208,160.100 263.289 C 161.145 264.369,162.000 265.490,162.000 265.779 C 162.000 266.629,174.751 279.971,180.400 285.032 C 191.567 295.036,207.373 295.287,218.985 285.646 C 222.708 282.554,238.000 266.637,238.000 265.853 C 238.000 265.638,238.945 264.368,240.100 263.031 C 241.255 261.694,242.650 260.078,243.200 259.439 C 243.750 258.800,244.560 257.900,245.000 257.439 C 249.856 252.348,256.046 241.872,258.022 235.400 C 258.291 234.520,258.645 233.440,258.810 233.000 C 259.199 231.958,260.395 227.396,262.033 220.700 C 262.684 218.037,263.246 215.828,263.585 214.600 C 263.767 213.940,264.151 212.275,264.440 210.900 L 264.965 208.400 268.108 208.400 C 276.083 208.400,283.779 200.867,287.723 189.200 C 289.269 184.629,290.403 178.268,290.393 174.233 C 290.370 165.556,286.165 155.600,282.523 155.600 C 282.229 155.600,281.646 155.386,281.227 155.124 C 280.091 154.415,279.200 155.339,279.200 157.225 C 279.200 158.065,279.020 158.864,278.800 159.000 C 278.580 159.136,278.400 159.946,278.400 160.800 C 278.400 161.654,278.220 162.464,278.000 162.600 C 277.780 162.736,277.600 163.456,277.600 164.200 C 277.600 164.944,277.420 165.664,277.200 165.800 C 276.980 165.936,276.800 166.746,276.800 167.600 C 276.800 168.454,276.620 169.264,276.400 169.400 C 276.180 169.536,276.000 170.346,276.000 171.200 C 276.000 172.054,275.820 172.864,275.600 173.000 C 275.380 173.136,275.200 173.946,275.200 174.800 C 275.200 175.654,275.020 176.464,274.800 176.600 C 274.580 176.736,274.400 177.469,274.400 178.229 C 274.400 178.989,274.233 179.923,274.029 180.305 C 273.825 180.687,273.558 181.323,273.435 181.717 C 273.242 182.339,272.803 182.418,270.106 182.317 L 267.000 182.200 267.019 175.400 C 267.029 171.660,267.256 163.740,267.523 157.800 C 268.298 140.588,268.764 126.231,268.556 126.023 C 268.450 125.917,268.014 126.048,267.587 126.315 C 266.665 126.891,255.970 126.999,255.380 126.439 C 255.171 126.240,254.190 125.984,253.200 125.870 C 250.208 125.525,241.383 123.605,237.400 122.432 C 236.740 122.238,234.580 121.693,232.600 121.221 C 230.620 120.748,228.325 120.191,227.500 119.981 C 226.675 119.771,225.325 119.429,224.500 119.219 C 214.085 116.573,203.842 114.536,193.200 112.994 C 188.146 112.261,174.683 111.914,170.103 112.398 M162.013 273.404 C 162.002 275.766,161.874 276.286,161.200 276.707 C 160.760 276.982,160.400 277.420,160.400 277.680 C 160.400 277.940,160.639 277.825,160.932 277.425 C 161.423 276.754,161.546 276.838,162.521 278.501 C 163.935 280.915,167.722 284.608,172.379 288.118 C 174.480 289.701,176.549 291.313,176.975 291.699 C 177.402 292.084,177.972 292.400,178.242 292.400 C 178.512 292.400,178.793 292.541,178.867 292.713 C 178.991 293.005,186.473 297.610,187.387 297.957 C 187.614 298.043,188.250 298.422,188.800 298.798 C 189.350 299.174,191.833 300.527,194.317 301.806 L 198.835 304.130 197.317 305.734 L 195.800 307.337 197.641 305.869 C 200.149 303.868,201.642 304.362,204.086 308.000 C 204.456 308.550,204.767 308.794,204.779 308.543 C 204.791 308.292,203.997 307.194,203.016 306.102 L 201.232 304.118 202.313 303.559 C 202.907 303.252,205.449 301.875,207.962 300.500 C 210.474 299.125,212.577 298.000,212.635 298.000 C 212.694 298.000,214.149 297.133,215.871 296.073 C 217.592 295.013,219.450 293.888,220.000 293.573 C 220.550 293.258,221.090 292.910,221.200 292.799 C 221.310 292.689,221.895 292.344,222.500 292.032 C 223.105 291.720,223.600 291.315,223.600 291.132 C 223.600 290.950,223.836 290.800,224.125 290.800 C 224.413 290.800,224.998 290.481,225.425 290.091 C 225.851 289.702,227.212 288.667,228.448 287.791 C 232.182 285.149,235.486 282.055,236.983 279.799 C 238.492 277.527,238.874 276.308,237.800 277.200 C 237.470 277.474,237.200 277.927,237.200 278.207 C 237.200 278.487,235.895 280.047,234.300 281.673 C 231.316 284.715,230.410 285.508,228.000 287.186 C 227.230 287.723,226.510 288.275,226.400 288.413 C 225.979 288.942,220.015 292.800,219.618 292.800 C 219.388 292.800,219.200 292.980,219.200 293.200 C 219.200 293.420,219.003 293.600,218.762 293.600 C 218.521 293.600,217.846 293.939,217.262 294.353 C 215.748 295.427,210.376 298.460,203.484 302.133 L 199.968 304.006 197.884 302.856 C 196.738 302.223,194.000 300.753,191.800 299.588 C 189.600 298.424,187.322 297.140,186.738 296.736 C 186.154 296.331,185.557 296.000,185.410 296.000 C 185.264 296.000,184.359 295.460,183.400 294.800 C 182.441 294.140,181.463 293.600,181.228 293.600 C 180.993 293.600,180.800 293.420,180.800 293.200 C 180.800 292.980,180.612 292.800,180.382 292.800 C 179.993 292.800,174.948 289.463,173.598 288.313 C 171.337 286.386,166.906 279.986,164.113 274.614 L 162.027 270.600 162.013 273.404 M238.806 277.476 C 238.803 277.958,238.980 278.464,239.200 278.600 C 239.709 278.915,239.709 277.988,239.200 277.200 C 238.885 276.712,238.811 276.764,238.806 277.476 M160.054 279.467 C 160.025 279.944,159.896 280.664,159.770 281.067 C 159.552 281.761,159.564 281.762,159.996 281.088 C 160.247 280.697,160.375 279.977,160.281 279.488 C 160.109 278.601,160.109 278.601,160.054 279.467 M239.606 280.633 C 239.609 281.275,239.796 282.070,240.021 282.400 C 240.314 282.830,240.354 282.546,240.162 281.400 C 239.830 279.416,239.598 279.096,239.606 280.633 M159.254 283.000 C 159.219 283.440,159.089 284.250,158.967 284.800 C 158.775 285.663,158.807 285.703,159.198 285.090 C 159.447 284.699,159.577 283.889,159.486 283.290 C 159.378 282.579,159.297 282.479,159.254 283.000 M240.400 284.510 C 240.400 285.303,240.591 286.071,240.826 286.216 C 241.115 286.395,241.162 285.988,240.972 284.939 C 240.603 282.897,240.400 282.745,240.400 284.510 M158.454 286.800 C 158.419 287.350,158.296 288.250,158.183 288.800 L 157.977 289.800 158.407 288.815 C 158.643 288.274,158.765 287.374,158.678 286.815 L 158.520 285.800 158.454 286.800 M241.200 288.310 C 241.200 288.993,241.377 289.662,241.594 289.796 C 241.840 289.948,241.894 289.545,241.737 288.720 C 241.400 286.951,241.200 286.799,241.200 288.310 M157.649 290.800 C 157.616 291.130,157.489 291.850,157.367 292.400 C 157.175 293.264,157.207 293.303,157.599 292.688 C 157.848 292.297,157.975 291.577,157.881 291.088 C 157.786 290.600,157.682 290.470,157.649 290.800 M242.040 292.276 C 242.018 292.978,242.180 293.664,242.400 293.800 C 242.860 294.084,242.860 293.436,242.400 292.000 C 242.094 291.045,242.078 291.057,242.040 292.276 M154.505 295.169 C 151.361 296.540,150.678 297.151,153.558 296.016 C 156.026 295.044,157.200 294.454,157.200 294.186 C 157.200 294.084,157.155 294.018,157.100 294.040 C 157.045 294.062,155.877 294.570,154.505 295.169 M242.579 294.835 C 242.396 295.130,242.443 295.221,242.696 295.064 C 242.926 294.922,243.809 295.091,244.658 295.441 C 247.439 296.587,248.989 297.261,249.695 297.634 C 250.077 297.835,250.617 297.999,250.895 297.998 C 251.753 297.993,249.774 297.085,243.340 294.528 C 243.088 294.428,242.745 294.566,242.579 294.835 M148.800 297.624 C 146.939 298.604,147.762 298.584,149.800 297.600 C 150.680 297.175,151.130 296.841,150.800 296.857 C 150.470 296.873,149.570 297.218,148.800 297.624 M251.600 298.240 C 251.600 298.442,253.210 299.109,254.954 299.630 C 255.589 299.820,255.995 299.861,255.856 299.722 C 255.510 299.377,251.600 298.015,251.600 298.240 M145.300 299.034 C 144.585 299.346,144.000 299.694,144.000 299.807 C 144.000 300.015,146.806 298.927,147.146 298.587 C 147.486 298.247,146.620 298.457,145.300 299.034 M123.283 308.269 C 121.898 308.835,120.835 309.368,120.920 309.453 C 121.106 309.639,125.240 308.005,125.780 307.533 C 126.330 307.051,126.078 307.125,123.283 308.269 M276.971 308.786 C 277.836 309.234,278.736 309.593,278.971 309.584 C 279.550 309.562,277.648 308.565,276.400 308.236 C 275.816 308.081,276.053 308.310,276.971 308.786 M279.600 309.816 C 279.600 309.928,280.005 310.177,280.500 310.369 C 280.995 310.561,282.345 311.094,283.500 311.553 C 284.655 312.013,285.600 312.296,285.600 312.184 C 285.600 312.072,285.195 311.823,284.700 311.631 C 284.205 311.439,282.855 310.906,281.700 310.447 C 280.545 309.987,279.600 309.704,279.600 309.816 M116.533 311.122 C 115.616 311.495,114.716 311.951,114.533 312.136 C 114.112 312.560,117.666 311.199,118.180 310.740 C 118.693 310.281,118.480 310.331,116.533 311.122 M193.513 312.486 C 193.188 313.428,191.994 316.963,190.860 320.341 L 188.797 326.481 189.465 329.741 C 190.124 332.955,190.118 333.105,189.028 340.600 C 188.421 344.780,187.762 349.370,187.565 350.800 C 187.368 352.230,187.039 354.480,186.833 355.800 C 186.401 358.565,184.815 369.218,183.587 377.600 C 183.345 379.250,182.979 381.725,182.774 383.100 C 182.568 384.475,182.234 386.725,182.031 388.100 C 181.828 389.475,181.546 391.140,181.404 391.800 C 180.952 393.910,181.565 393.983,199.705 393.986 C 210.142 393.987,216.000 393.847,216.000 393.594 C 216.000 393.377,216.630 393.200,217.400 393.200 C 218.955 393.200,218.949 393.215,218.431 390.520 C 218.229 389.464,217.858 387.160,217.608 385.400 C 217.357 383.640,216.983 381.075,216.776 379.700 C 216.569 378.325,216.224 376.029,216.009 374.598 C 215.794 373.167,215.431 370.782,215.202 369.298 C 214.974 367.814,214.504 364.620,214.158 362.200 C 213.813 359.780,213.392 356.900,213.224 355.800 C 213.056 354.700,212.230 349.016,211.389 343.168 L 209.859 332.536 210.564 329.634 C 211.086 327.488,211.165 326.455,210.867 325.666 C 210.646 325.080,210.352 324.084,210.213 323.453 C 210.074 322.822,209.857 322.410,209.729 322.537 C 209.602 322.665,209.791 323.666,210.150 324.762 C 210.754 326.609,210.753 326.925,210.137 329.078 C 209.296 332.018,208.966 336.000,209.564 336.000 C 209.822 336.000,210.005 336.860,210.013 338.100 C 210.027 340.285,210.170 341.406,212.041 354.000 C 212.253 355.430,212.606 357.860,212.825 359.400 C 213.045 360.940,213.406 363.370,213.629 364.800 C 213.851 366.230,214.124 368.390,214.234 369.600 C 214.345 370.810,214.600 372.160,214.800 372.600 C 215.000 373.040,215.255 374.390,215.366 375.600 C 215.476 376.810,215.763 379.060,216.002 380.600 C 216.242 382.140,216.534 384.480,216.652 385.800 C 216.771 387.120,217.032 388.371,217.234 388.580 C 217.806 389.174,217.663 391.850,217.031 392.374 C 216.162 393.095,183.203 393.046,182.744 392.323 C 182.278 391.588,182.318 388.898,182.800 388.600 C 183.020 388.464,183.200 387.319,183.200 386.056 C 183.200 384.793,183.365 383.589,183.566 383.380 C 183.910 383.024,184.023 382.195,184.629 375.600 C 184.760 374.170,185.032 372.829,185.234 372.620 C 185.435 372.411,185.600 371.207,185.600 369.944 C 185.600 368.681,185.780 367.536,186.000 367.400 C 186.220 367.264,186.400 366.029,186.400 364.656 C 186.400 363.283,186.560 361.989,186.757 361.780 C 186.953 361.571,187.223 360.320,187.357 359.000 C 187.588 356.722,187.872 354.675,188.811 348.500 C 189.036 347.015,189.379 344.630,189.572 343.200 C 190.057 339.602,190.686 335.640,191.010 334.146 C 191.181 333.357,191.063 332.394,190.691 331.546 C 189.134 327.997,189.046 324.644,190.467 323.020 C 190.650 322.811,190.800 322.237,190.800 321.744 C 190.800 321.251,190.959 320.749,191.154 320.629 C 191.349 320.508,191.600 319.913,191.713 319.305 C 191.826 318.697,192.486 316.604,193.179 314.654 C 193.873 312.703,194.365 311.032,194.272 310.939 C 194.180 310.847,193.838 311.543,193.513 312.486 M109.600 314.054 C 108.574 314.616,108.467 314.752,109.200 314.561 C 110.535 314.213,112.357 313.225,111.600 313.259 C 111.270 313.274,110.370 313.632,109.600 314.054 M288.800 313.766 C 289.350 314.060,290.250 314.412,290.800 314.549 C 291.350 314.686,291.080 314.452,290.200 314.029 C 288.390 313.158,287.268 312.948,288.800 313.766 M106.100 315.434 C 105.385 315.746,104.800 316.094,104.800 316.207 C 104.800 316.415,107.606 315.327,107.946 314.987 C 108.286 314.647,107.420 314.857,106.100 315.434 M207.212 315.200 C 207.212 315.530,207.387 316.070,207.600 316.400 C 207.945 316.933,207.988 316.933,207.988 316.400 C 207.988 316.070,207.813 315.530,207.600 315.200 C 207.255 314.667,207.212 314.667,207.212 315.200 M208.806 320.076 C 208.818 321.081,209.587 321.908,209.594 320.924 C 209.597 320.442,209.420 319.936,209.200 319.800 C 208.980 319.664,208.803 319.788,208.806 320.076 M311.200 323.014 C 311.200 323.293,314.106 324.431,314.491 324.303 C 314.682 324.239,314.020 323.884,313.019 323.513 C 312.019 323.142,311.200 322.917,311.200 323.014 M81.494 325.085 C 80.445 325.435,79.660 325.793,79.748 325.882 C 79.837 325.970,80.965 325.686,82.255 325.250 C 83.545 324.814,84.330 324.455,84.000 324.453 C 83.670 324.451,82.542 324.735,81.494 325.085 M317.600 325.190 C 318.810 325.623,319.980 325.975,320.200 325.973 C 320.924 325.965,318.154 324.896,316.762 324.647 C 315.883 324.489,316.180 324.682,317.600 325.190 M75.007 327.814 C 73.912 328.370,72.832 329.012,72.607 329.241 C 72.383 329.469,73.325 329.083,74.700 328.382 C 76.075 327.681,77.200 327.039,77.200 326.954 C 77.200 326.712,77.115 326.745,75.007 327.814 M322.800 326.983 C 322.800 327.163,325.202 328.400,325.550 328.400 C 325.897 328.400,324.294 327.367,323.500 327.079 C 323.115 326.939,322.800 326.896,322.800 326.983 M70.562 330.462 L 69.800 331.324 70.900 330.616 C 72.034 329.886,72.249 329.600,71.662 329.600 C 71.476 329.600,70.981 329.988,70.562 330.462 M66.231 333.837 C 64.532 335.287,63.242 336.576,63.366 336.700 C 63.491 336.824,64.000 336.492,64.499 335.963 C 64.998 335.433,66.391 334.145,67.596 333.100 C 68.801 332.055,69.682 331.200,69.554 331.200 C 69.427 331.200,67.931 332.387,66.231 333.837 M331.200 332.010 C 333.855 334.344,335.090 335.538,336.100 336.746 C 336.705 337.469,337.200 337.871,337.200 337.639 C 337.200 337.076,333.279 333.179,331.564 332.038 C 330.235 331.154,330.226 331.153,331.200 332.010  M -25 0 L -5 0 L -5 20 L -25 20 Z M 405 0 L 425 0 L 425 20 L 405 20 Z" stroke="none" fill="#ebb487" fill-rule="evenodd" transform="translate(30,0)"></path><path id="path1" d="M182.400 6.400 C 182.400 6.639,180.867 6.800,178.600 6.800 C 176.333 6.800,174.800 6.961,174.800 7.200 C 174.800 7.425,173.675 7.600,172.224 7.600 C 170.807 7.600,169.552 7.753,169.437 7.941 C 169.246 8.248,164.533 8.880,162.636 8.851 C 162.216 8.845,161.567 9.004,161.193 9.204 C 160.819 9.404,159.846 9.612,159.029 9.667 C 158.212 9.722,157.456 9.910,157.348 10.084 C 157.241 10.258,156.544 10.400,155.800 10.400 C 155.056 10.400,154.336 10.580,154.200 10.800 C 154.064 11.020,153.243 11.200,152.376 11.200 C 151.509 11.200,150.800 11.380,150.800 11.600 C 150.800 11.820,150.290 12.000,149.667 12.000 C 149.043 12.000,148.407 12.127,148.252 12.282 C 148.097 12.437,147.482 12.628,146.885 12.706 C 146.288 12.785,145.629 13.018,145.420 13.225 C 145.211 13.431,144.624 13.600,144.115 13.600 C 143.606 13.600,142.877 13.762,142.495 13.961 C 142.113 14.160,140.990 14.540,140.000 14.807 C 138.156 15.303,136.733 15.822,135.505 16.447 C 135.123 16.641,134.448 16.800,134.005 16.800 C 133.562 16.800,133.200 16.980,133.200 17.200 C 133.200 17.420,132.761 17.600,132.224 17.600 C 131.687 17.600,131.136 17.780,131.000 18.000 C 130.864 18.220,130.313 18.400,129.776 18.400 C 129.239 18.400,128.800 18.580,128.800 18.800 C 128.800 19.020,128.440 19.200,128.000 19.200 C 127.560 19.200,127.200 19.380,127.200 19.600 C 127.200 19.820,126.739 20.000,126.176 20.000 C 125.596 20.000,125.260 20.173,125.400 20.400 C 125.544 20.633,125.137 20.800,124.424 20.800 C 123.751 20.800,123.200 20.980,123.200 21.200 C 123.200 21.420,122.840 21.600,122.400 21.600 C 121.960 21.600,121.600 21.780,121.600 22.000 C 121.600 22.220,121.255 22.400,120.833 22.400 C 120.412 22.400,120.007 22.578,119.933 22.797 C 119.860 23.015,119.318 23.233,118.729 23.281 C 118.140 23.330,117.745 23.512,117.852 23.685 C 117.960 23.858,117.677 24.000,117.224 24.000 C 116.771 24.000,116.400 24.180,116.400 24.400 C 116.400 24.620,116.087 24.800,115.704 24.800 C 114.894 24.800,109.064 27.593,108.867 28.075 C 108.793 28.254,108.388 28.400,107.967 28.400 C 107.545 28.400,107.200 28.580,107.200 28.800 C 107.200 29.020,106.930 29.200,106.600 29.200 C 106.270 29.200,105.999 29.335,105.997 29.500 C 105.993 29.859,104.056 30.800,103.320 30.800 C 103.034 30.800,102.800 30.980,102.800 31.200 C 102.800 31.420,102.530 31.600,102.200 31.600 C 101.870 31.600,101.600 31.780,101.600 32.000 C 101.600 32.220,101.330 32.400,101.000 32.400 C 100.670 32.400,100.400 32.580,100.400 32.800 C 100.400 33.020,100.040 33.200,99.600 33.200 C 99.160 33.200,98.800 33.358,98.800 33.551 C 98.800 33.745,98.260 34.127,97.600 34.400 C 96.940 34.673,96.400 35.055,96.400 35.249 C 96.400 35.442,96.164 35.600,95.875 35.600 C 95.587 35.600,94.964 35.960,94.492 36.400 C 94.020 36.840,93.446 37.200,93.217 37.200 C 92.988 37.200,92.800 37.380,92.800 37.600 C 92.800 37.820,92.530 38.000,92.200 38.000 C 91.870 38.000,91.600 38.180,91.600 38.400 C 91.600 38.620,91.370 38.800,91.088 38.800 C 90.807 38.800,90.317 39.160,90.000 39.600 C 89.683 40.040,89.185 40.400,88.894 40.400 C 88.602 40.400,87.914 40.850,87.364 41.400 C 86.814 41.950,86.147 42.400,85.882 42.400 C 85.617 42.401,84.877 42.851,84.238 43.400 C 83.599 43.950,82.938 44.400,82.769 44.400 C 82.601 44.400,81.757 45.099,80.895 45.953 C 80.032 46.807,78.935 47.630,78.457 47.782 C 77.979 47.934,77.692 48.225,77.818 48.429 C 77.944 48.633,77.849 48.800,77.608 48.800 C 77.366 48.800,76.680 49.261,76.084 49.824 C 71.940 53.740,70.226 55.200,69.773 55.200 C 69.488 55.200,69.140 55.560,69.000 56.000 C 68.860 56.440,68.594 56.800,68.409 56.800 C 68.223 56.800,67.020 57.790,65.735 58.999 C 64.451 60.209,62.860 61.707,62.200 62.328 C 61.540 62.949,60.100 64.500,59.000 65.775 C 57.900 67.051,56.595 68.465,56.100 68.919 C 55.605 69.373,55.200 69.902,55.200 70.094 C 55.200 70.287,54.120 71.504,52.800 72.800 C 51.480 74.096,50.400 75.280,50.400 75.431 C 50.400 75.582,50.080 75.997,49.689 76.353 C 49.297 76.709,48.353 77.810,47.590 78.800 C 46.827 79.790,45.797 81.013,45.301 81.518 C 44.805 82.023,44.400 82.689,44.400 82.998 C 44.400 83.307,44.161 83.704,43.869 83.880 C 43.577 84.056,42.992 84.830,42.569 85.600 C 42.146 86.370,41.485 87.291,41.100 87.647 C 40.715 88.003,40.400 88.548,40.400 88.859 C 40.400 89.169,40.040 89.683,39.600 90.000 C 39.160 90.317,38.800 90.857,38.800 91.200 C 38.800 91.543,38.440 92.083,38.000 92.400 C 37.560 92.717,37.200 93.124,37.200 93.305 C 37.200 93.486,36.840 94.020,36.400 94.492 C 35.960 94.964,35.600 95.587,35.600 95.875 C 35.600 96.164,35.420 96.400,35.200 96.400 C 34.980 96.400,34.800 96.670,34.800 97.000 C 34.800 97.330,34.654 97.600,34.475 97.600 C 34.296 97.600,33.902 98.230,33.600 99.000 C 33.298 99.770,32.931 100.400,32.785 100.400 C 32.639 100.400,31.911 101.615,31.168 103.100 C 30.424 104.585,29.723 105.890,29.608 106.000 C 29.494 106.110,28.963 107.010,28.430 108.000 C 25.555 113.333,24.800 114.923,24.800 115.648 C 24.800 116.088,24.620 116.336,24.400 116.200 C 24.180 116.064,24.000 116.236,24.000 116.582 C 24.000 116.928,23.792 117.613,23.538 118.105 C 22.567 119.982,22.400 120.407,22.400 120.995 C 22.400 121.328,22.220 121.600,22.000 121.600 C 21.780 121.600,21.600 121.960,21.600 122.400 C 21.600 122.840,21.420 123.200,21.200 123.200 C 20.980 123.200,20.800 123.639,20.800 124.176 C 20.800 124.713,20.620 125.264,20.400 125.400 C 20.180 125.536,20.000 125.997,20.000 126.424 C 20.000 126.851,19.820 127.200,19.600 127.200 C 19.380 127.200,19.200 127.650,19.200 128.200 C 19.200 128.750,19.020 129.200,18.800 129.200 C 18.580 129.200,18.400 129.650,18.400 130.200 C 18.400 130.750,18.220 131.200,18.000 131.200 C 17.780 131.200,17.600 131.650,17.600 132.200 C 17.600 132.750,17.420 133.200,17.200 133.200 C 16.980 133.200,16.800 133.740,16.800 134.400 C 16.800 135.060,16.620 135.600,16.400 135.600 C 16.180 135.600,16.000 136.039,16.000 136.576 C 16.000 137.113,15.820 137.664,15.600 137.800 C 15.380 137.936,15.200 138.577,15.200 139.224 C 15.200 139.871,15.020 140.400,14.800 140.400 C 14.580 140.400,14.400 140.940,14.400 141.600 C 14.400 142.260,14.240 142.800,14.045 142.800 C 13.710 142.800,13.458 143.688,12.937 146.700 C 12.814 147.415,12.552 148.000,12.356 148.000 C 12.160 148.000,12.000 148.720,12.000 149.600 C 12.000 150.480,11.839 151.200,11.642 151.200 C 11.445 151.200,11.185 151.875,11.065 152.700 C 10.701 155.184,10.354 156.966,10.109 157.600 C 9.981 157.930,9.812 158.650,9.734 159.200 C 9.655 159.750,9.476 160.650,9.337 161.200 C 8.948 162.739,8.836 163.552,8.549 166.912 C 8.403 168.624,8.130 170.120,7.942 170.236 C 7.754 170.352,7.600 171.592,7.600 172.990 C 7.600 174.389,7.431 175.593,7.225 175.667 C 7.018 175.740,6.814 177.420,6.770 179.400 C 6.726 181.380,6.529 183.104,6.333 183.231 C 5.814 183.567,5.870 217.757,6.390 217.930 C 6.626 218.009,6.800 219.481,6.800 221.410 C 6.800 223.248,6.980 224.864,7.200 225.000 C 7.420 225.136,7.600 226.371,7.600 227.744 C 7.600 229.117,7.761 230.411,7.958 230.620 C 8.155 230.829,8.429 232.260,8.566 233.800 C 8.836 236.818,8.956 237.652,9.341 239.200 C 9.478 239.750,9.655 240.650,9.734 241.200 C 9.812 241.750,9.981 242.470,10.109 242.800 C 10.354 243.435,10.702 245.218,11.065 247.703 C 11.186 248.529,11.445 249.305,11.642 249.426 C 11.839 249.548,12.000 250.029,12.000 250.495 C 12.000 251.396,12.665 253.739,13.249 254.895 C 13.442 255.277,13.600 256.006,13.600 256.515 C 13.600 257.024,13.749 257.611,13.930 257.820 C 14.338 258.289,15.333 261.401,15.333 262.208 C 15.333 262.534,15.483 262.800,15.667 262.800 C 15.850 262.800,16.000 263.250,16.000 263.800 C 16.000 264.350,16.180 264.800,16.400 264.800 C 16.620 264.800,16.800 265.250,16.800 265.800 C 16.800 266.350,16.980 266.800,17.200 266.800 C 17.420 266.800,17.600 267.239,17.600 267.776 C 17.600 268.313,17.744 268.842,17.921 268.951 C 18.097 269.060,18.490 270.061,18.793 271.175 C 19.096 272.289,19.492 273.200,19.672 273.200 C 19.853 273.200,20.000 273.650,20.000 274.200 C 20.000 274.750,20.180 275.200,20.400 275.200 C 20.620 275.200,20.800 275.560,20.800 276.000 C 20.800 276.440,20.980 276.800,21.200 276.800 C 21.420 276.800,21.600 277.160,21.600 277.600 C 21.600 278.040,21.747 278.400,21.928 278.400 C 22.108 278.400,22.500 279.300,22.800 280.400 C 23.100 281.500,23.492 282.400,23.672 282.400 C 23.853 282.400,24.000 282.760,24.000 283.200 C 24.000 283.640,24.180 284.000,24.400 284.000 C 24.620 284.000,24.800 284.236,24.800 284.525 C 24.800 284.814,25.250 285.983,25.800 287.123 C 26.350 288.263,26.800 289.377,26.800 289.598 C 26.800 289.819,26.946 290.000,27.125 290.000 C 27.304 290.000,27.698 290.630,28.000 291.400 C 28.302 292.170,28.662 292.800,28.800 292.800 C 28.938 292.800,29.298 293.430,29.600 294.200 C 29.902 294.970,30.296 295.600,30.475 295.600 C 30.654 295.600,30.800 295.945,30.800 296.367 C 30.800 296.788,30.966 297.193,31.170 297.267 C 31.373 297.340,31.598 297.670,31.670 298.000 C 31.741 298.330,32.115 298.891,32.500 299.247 C 32.885 299.603,33.200 300.188,33.200 300.547 C 33.200 300.906,33.380 301.200,33.600 301.200 C 33.820 301.200,34.000 301.436,34.000 301.725 C 34.000 302.013,34.360 302.636,34.800 303.108 C 35.240 303.580,35.600 304.178,35.600 304.436 C 35.600 304.695,35.916 305.197,36.303 305.553 C 36.689 305.909,37.260 306.695,37.570 307.300 C 37.881 307.905,38.285 308.400,38.468 308.400 C 38.650 308.400,38.800 308.630,38.800 308.912 C 38.800 309.193,39.160 309.683,39.600 310.000 C 40.040 310.317,40.400 310.857,40.400 311.200 C 40.400 311.543,40.760 312.083,41.200 312.400 C 41.640 312.717,42.000 313.218,42.000 313.512 C 42.000 313.807,42.652 314.828,43.450 315.782 C 44.247 316.736,44.857 317.580,44.805 317.658 C 44.752 317.736,45.450 318.610,46.355 319.600 C 47.260 320.590,48.000 321.533,48.000 321.696 C 48.000 321.860,48.540 322.509,49.200 323.140 C 49.860 323.771,50.400 324.414,50.400 324.569 C 50.400 324.725,51.300 325.729,52.400 326.800 C 53.500 327.871,54.400 328.880,54.400 329.040 C 54.400 329.201,54.669 329.618,54.998 329.966 C 55.327 330.315,56.272 331.343,57.098 332.251 C 57.924 333.159,59.365 334.738,60.300 335.761 L 62.000 337.621 64.300 335.298 C 67.033 332.538,71.204 329.369,73.297 328.462 C 74.124 328.104,74.800 327.674,74.800 327.506 C 74.800 327.338,75.065 327.200,75.388 327.200 C 75.711 327.200,76.617 326.840,77.400 326.400 C 78.183 325.960,79.168 325.600,79.589 325.600 C 80.009 325.600,80.464 325.420,80.600 325.200 C 80.736 324.980,81.276 324.800,81.800 324.800 C 82.324 324.800,82.864 324.620,83.000 324.400 C 83.136 324.180,83.665 324.000,84.175 324.000 C 85.038 324.000,86.046 323.651,89.600 322.121 C 90.370 321.790,91.360 321.375,91.800 321.200 C 92.240 321.025,93.230 320.611,94.000 320.279 C 94.770 319.948,97.470 318.831,100.000 317.797 C 102.530 316.764,105.550 315.486,106.712 314.959 C 107.873 314.432,108.981 314.000,109.174 314.000 C 109.367 314.000,110.306 313.614,111.262 313.143 C 112.218 312.672,113.360 312.150,113.800 311.984 C 114.240 311.818,115.275 311.393,116.100 311.041 C 116.925 310.688,118.275 310.112,119.100 309.759 C 119.925 309.407,120.960 308.975,121.400 308.799 C 121.840 308.623,123.053 308.102,124.096 307.640 C 125.138 307.178,126.085 306.800,126.200 306.800 C 126.397 306.800,127.171 306.469,131.696 304.447 C 132.738 303.981,133.685 303.600,133.800 303.600 C 133.915 303.600,134.772 303.251,135.704 302.825 C 136.637 302.399,138.570 301.581,140.000 301.008 C 142.924 299.834,143.423 299.624,146.096 298.440 C 147.138 297.978,148.085 297.600,148.200 297.600 C 148.315 297.600,149.262 297.222,150.304 296.760 C 151.347 296.298,152.560 295.777,153.000 295.601 C 156.313 294.278,156.712 293.987,156.969 292.703 C 157.113 291.986,157.411 290.500,157.632 289.400 C 157.853 288.300,158.127 286.770,158.241 286.000 C 158.356 285.230,158.607 284.240,158.800 283.800 C 158.993 283.360,159.246 282.370,159.364 281.600 C 159.942 277.799,160.149 277.114,160.847 276.678 C 161.515 276.261,161.600 275.678,161.600 271.530 C 161.600 265.753,161.493 265.473,157.669 261.237 C 150.248 253.017,145.352 245.891,143.143 240.100 C 142.954 239.605,142.629 238.795,142.420 238.300 C 141.575 236.300,139.969 230.487,137.639 221.000 C 136.288 215.500,135.048 210.550,134.883 210.000 C 134.602 209.061,134.378 208.986,131.192 208.777 C 121.906 208.167,113.005 197.712,110.438 184.400 C 110.204 183.190,109.830 181.246,109.607 180.080 C 108.293 173.233,110.147 161.976,113.100 158.869 C 113.378 158.577,113.780 158.011,113.993 157.612 C 114.606 156.469,117.931 154.721,119.616 154.657 C 121.111 154.601,121.129 154.583,120.436 153.800 C 120.046 153.360,119.335 151.650,118.856 150.000 C 118.376 148.350,117.819 146.460,117.618 145.800 C 111.486 125.620,113.451 99.477,122.325 83.200 C 136.832 56.590,175.509 40.228,207.400 47.211 C 208.280 47.403,209.990 47.775,211.200 48.037 C 212.410 48.299,214.480 48.852,215.800 49.265 C 217.120 49.679,218.830 50.206,219.600 50.437 C 221.075 50.880,224.712 52.193,226.400 52.893 C 226.950 53.121,227.760 53.448,228.200 53.619 C 257.992 65.245,275.948 79.595,281.506 96.220 C 284.737 105.887,284.930 114.120,282.394 134.200 C 281.711 139.611,281.220 143.842,280.768 148.200 C 280.517 150.620,280.161 153.095,279.977 153.700 C 279.661 154.736,279.714 154.800,280.886 154.800 C 284.247 154.800,288.181 159.193,289.501 164.422 C 290.616 168.833,290.800 170.212,290.800 174.147 C 290.800 178.044,290.657 179.231,289.542 184.600 C 286.752 198.031,278.058 208.170,268.810 208.777 L 265.420 209.000 262.898 219.200 C 258.686 236.241,258.270 237.460,253.744 246.049 C 251.981 249.394,248.669 253.873,244.000 259.227 C 241.470 262.128,239.181 264.884,238.914 265.351 C 238.125 266.731,238.228 275.986,239.040 276.580 C 239.392 276.837,239.851 277.847,240.062 278.824 C 240.272 279.801,240.622 281.410,240.840 282.400 C 241.058 283.390,241.408 285.055,241.618 286.100 C 241.828 287.145,242.173 288.855,242.385 289.900 C 242.597 290.945,242.887 292.385,243.030 293.100 C 243.175 293.824,243.539 294.400,243.851 294.400 C 244.159 294.400,244.723 294.565,245.105 294.766 C 245.487 294.968,246.430 295.397,247.200 295.719 C 247.970 296.041,249.230 296.570,250.000 296.894 C 250.770 297.218,252.390 297.893,253.600 298.394 C 254.810 298.895,256.160 299.454,256.600 299.636 C 257.040 299.818,259.343 300.785,261.718 301.784 C 264.093 302.783,266.120 303.600,266.222 303.600 C 266.325 303.600,267.262 303.981,268.304 304.447 C 269.347 304.912,270.785 305.542,271.500 305.847 C 272.215 306.151,273.475 306.688,274.300 307.041 C 275.125 307.393,276.160 307.820,276.600 307.990 C 277.040 308.160,278.300 308.704,279.400 309.200 C 280.500 309.696,281.805 310.259,282.300 310.451 C 284.993 311.496,287.619 312.609,289.361 313.444 C 290.000 313.750,290.670 314.000,290.850 314.000 C 291.029 314.000,292.127 314.432,293.288 314.959 C 294.450 315.486,297.470 316.764,300.000 317.797 C 302.530 318.831,305.185 319.930,305.900 320.239 C 306.615 320.547,307.785 321.049,308.500 321.353 C 309.215 321.656,310.520 322.212,311.400 322.586 C 312.280 322.961,313.313 323.432,313.695 323.634 C 314.077 323.835,314.921 324.000,315.571 324.000 C 316.221 324.000,316.864 324.180,317.000 324.400 C 317.136 324.620,317.676 324.800,318.200 324.800 C 318.724 324.800,319.264 324.980,319.400 325.200 C 319.536 325.420,319.952 325.597,320.324 325.594 C 323.048 325.568,335.439 333.898,336.847 336.701 L 337.494 337.990 338.549 336.895 C 342.837 332.448,344.800 330.289,344.800 330.020 C 344.800 329.848,345.745 328.713,346.900 327.497 C 350.611 323.591,352.000 321.982,352.000 321.586 C 352.000 321.374,352.180 321.200,352.400 321.200 C 352.620 321.200,352.800 321.008,352.800 320.773 C 352.800 320.539,353.428 319.684,354.197 318.873 C 354.965 318.063,355.595 317.289,355.597 317.154 C 355.598 317.019,356.135 316.299,356.789 315.554 C 357.442 314.809,358.184 313.705,358.437 313.100 C 358.690 312.495,359.055 312.000,359.249 312.000 C 359.442 312.000,359.600 311.680,359.600 311.288 C 359.600 310.897,359.960 310.317,360.400 310.000 C 360.840 309.683,361.200 309.276,361.200 309.095 C 361.200 308.914,361.560 308.380,362.000 307.908 C 362.440 307.436,362.800 306.813,362.800 306.525 C 362.800 306.236,362.980 306.000,363.200 306.000 C 363.420 306.000,363.600 305.719,363.600 305.376 C 363.600 305.033,363.780 304.864,364.000 305.000 C 364.220 305.136,364.400 304.959,364.400 304.607 C 364.400 304.255,364.760 303.580,365.200 303.108 C 365.640 302.636,366.000 302.013,366.000 301.725 C 366.000 301.436,366.180 301.200,366.400 301.200 C 366.620 301.200,366.800 300.840,366.800 300.400 C 366.800 299.960,366.935 299.600,367.101 299.600 C 367.266 299.600,367.847 298.745,368.391 297.700 C 368.935 296.655,369.481 295.710,369.605 295.600 C 370.025 295.225,374.898 285.682,375.682 283.700 C 375.964 282.985,376.331 282.400,376.498 282.400 C 376.664 282.400,376.800 282.051,376.800 281.624 C 376.800 281.197,376.980 280.736,377.200 280.600 C 377.420 280.464,377.600 279.913,377.600 279.376 C 377.600 278.839,377.780 278.400,378.000 278.400 C 378.220 278.400,378.400 278.040,378.400 277.600 C 378.400 277.160,378.580 276.800,378.800 276.800 C 379.020 276.800,379.200 276.440,379.200 276.000 C 379.200 275.560,379.380 275.200,379.600 275.200 C 379.820 275.200,380.000 274.649,380.000 273.976 C 380.000 273.263,380.167 272.856,380.400 273.000 C 380.627 273.140,380.800 272.804,380.800 272.224 C 380.800 271.661,380.980 271.200,381.200 271.200 C 381.420 271.200,381.600 270.750,381.600 270.200 C 381.600 269.650,381.780 269.200,382.000 269.200 C 382.220 269.200,382.400 268.660,382.400 268.000 C 382.400 267.340,382.580 266.800,382.800 266.800 C 383.020 266.800,383.200 266.275,383.200 265.633 C 383.200 264.992,383.335 264.407,383.501 264.333 C 383.912 264.151,385.600 259.097,385.600 258.047 C 385.600 257.581,385.780 257.200,386.000 257.200 C 386.220 257.200,386.400 256.660,386.400 256.000 C 386.400 255.340,386.580 254.800,386.800 254.800 C 387.020 254.800,387.200 254.181,387.200 253.424 C 387.200 252.667,387.380 251.936,387.600 251.800 C 387.820 251.664,388.000 251.034,388.000 250.400 C 388.000 249.766,388.180 249.136,388.400 249.000 C 388.620 248.864,388.800 248.234,388.800 247.600 C 388.800 246.966,388.980 246.336,389.200 246.200 C 389.420 246.064,389.600 245.254,389.600 244.400 C 389.600 243.546,389.780 242.736,390.000 242.600 C 390.220 242.464,390.400 241.722,390.400 240.950 C 390.400 240.179,390.570 239.230,390.777 238.843 C 390.984 238.456,391.280 236.308,391.434 234.069 C 391.588 231.831,391.869 230.000,392.057 230.000 C 392.246 230.000,392.400 228.931,392.400 227.624 C 392.400 226.317,392.580 225.136,392.800 225.000 C 393.020 224.864,393.200 223.143,393.200 221.176 C 393.200 219.014,393.361 217.600,393.608 217.600 C 393.879 217.600,394.007 211.696,393.992 199.986 C 393.977 188.838,393.827 182.460,393.584 182.610 C 393.349 182.755,393.200 181.374,393.200 179.047 C 393.200 176.945,393.021 175.137,392.800 175.000 C 392.580 174.864,392.400 173.683,392.400 172.376 C 392.400 171.069,392.247 170.000,392.060 170.000 C 391.873 170.000,391.601 168.185,391.456 165.966 C 391.310 163.747,391.021 161.613,390.812 161.223 C 390.603 160.833,390.389 159.858,390.335 159.057 C 390.281 158.256,390.093 157.600,389.918 157.600 C 389.743 157.600,389.600 156.891,389.600 156.024 C 389.600 155.157,389.420 154.336,389.200 154.200 C 388.980 154.064,388.800 153.434,388.800 152.800 C 388.800 152.166,388.620 151.536,388.400 151.400 C 388.180 151.264,388.000 150.544,388.000 149.800 C 388.000 149.056,387.820 148.336,387.600 148.200 C 387.380 148.064,387.200 147.344,387.200 146.600 C 387.200 145.856,387.020 145.136,386.800 145.000 C 386.580 144.864,386.400 144.324,386.400 143.800 C 386.400 143.276,386.220 142.736,386.000 142.600 C 385.780 142.464,385.600 141.924,385.600 141.400 C 385.600 140.876,385.420 140.336,385.200 140.200 C 384.980 140.064,384.800 139.511,384.800 138.971 C 384.800 138.431,384.620 137.632,384.400 137.195 C 384.180 136.758,383.820 136.042,383.600 135.605 C 383.380 135.168,383.200 134.448,383.200 134.005 C 383.200 133.562,383.020 133.200,382.800 133.200 C 382.580 133.200,382.400 132.660,382.400 132.000 C 382.400 131.340,382.220 130.800,382.000 130.800 C 381.780 130.800,381.600 130.350,381.600 129.800 C 381.600 129.250,381.420 128.800,381.200 128.800 C 380.980 128.800,380.800 128.350,380.800 127.800 C 380.800 127.250,380.620 126.800,380.400 126.800 C 380.180 126.800,380.000 126.429,380.000 125.976 C 380.000 125.523,379.820 125.264,379.600 125.400 C 379.367 125.544,379.200 125.137,379.200 124.424 C 379.200 123.751,379.020 123.200,378.800 123.200 C 378.580 123.200,378.400 122.840,378.400 122.400 C 378.400 121.960,378.220 121.600,378.000 121.600 C 377.780 121.600,377.594 121.195,377.587 120.700 C 377.580 120.205,377.316 119.458,377.000 119.041 C 376.684 118.624,376.520 118.129,376.636 117.941 C 376.752 117.753,376.657 117.600,376.424 117.600 C 376.191 117.600,376.000 117.229,376.000 116.776 C 376.000 116.323,375.820 116.064,375.600 116.200 C 375.380 116.336,375.200 116.114,375.200 115.706 C 375.200 115.298,374.371 113.352,373.358 111.382 C 372.345 109.412,371.310 107.396,371.058 106.903 C 370.806 106.410,370.465 106.005,370.300 106.003 C 370.135 106.001,370.000 105.655,370.000 105.233 C 370.000 104.812,369.865 104.407,369.700 104.333 C 369.324 104.166,368.025 102.036,367.729 101.100 C 367.607 100.715,367.348 100.400,367.153 100.400 C 366.959 100.400,366.800 100.106,366.800 99.747 C 366.800 99.388,366.485 98.801,366.100 98.443 C 365.189 97.595,364.400 96.175,364.400 95.382 C 364.400 95.036,364.220 94.864,364.000 95.000 C 363.780 95.136,363.600 94.967,363.600 94.624 C 363.600 94.281,363.420 94.000,363.200 94.000 C 362.980 94.000,362.800 93.770,362.800 93.488 C 362.800 93.207,362.440 92.717,362.000 92.400 C 361.560 92.083,361.200 91.543,361.200 91.200 C 361.200 90.857,360.840 90.317,360.400 90.000 C 359.960 89.683,359.600 89.180,359.600 88.883 C 359.600 88.586,359.375 88.092,359.100 87.785 C 357.961 86.515,357.585 86.003,357.627 85.776 C 357.651 85.644,357.114 84.925,356.435 84.179 C 355.756 83.432,355.199 82.682,355.198 82.511 C 355.197 82.340,354.657 81.625,353.998 80.922 C 353.339 80.219,352.800 79.454,352.800 79.222 C 352.800 78.990,352.620 78.800,352.400 78.800 C 352.180 78.800,352.000 78.519,352.000 78.176 C 352.000 77.833,351.820 77.664,351.600 77.800 C 351.380 77.936,351.200 77.849,351.200 77.608 C 351.200 77.366,350.742 76.680,350.182 76.084 C 349.622 75.488,348.092 73.865,346.782 72.477 C 345.472 71.090,344.400 69.795,344.400 69.600 C 344.400 69.405,343.365 68.174,342.100 66.865 C 340.835 65.556,339.239 63.881,338.553 63.143 C 336.565 61.002,330.503 55.434,329.965 55.255 C 329.695 55.165,328.537 54.171,327.391 53.046 C 325.388 51.079,323.496 49.425,321.050 47.503 C 320.418 47.006,319.364 46.105,318.708 45.500 C 318.052 44.895,317.379 44.400,317.212 44.400 C 317.045 44.400,316.299 43.863,315.554 43.206 C 314.809 42.550,313.925 42.010,313.588 42.006 C 313.252 42.003,312.717 41.640,312.400 41.200 C 312.083 40.760,311.543 40.400,311.200 40.400 C 310.857 40.400,310.317 40.040,310.000 39.600 C 309.683 39.160,309.221 38.800,308.974 38.800 C 308.726 38.800,308.198 38.440,307.800 38.000 C 307.402 37.560,306.916 37.200,306.721 37.200 C 306.526 37.200,305.980 36.840,305.508 36.400 C 305.036 35.960,304.413 35.600,304.125 35.600 C 303.836 35.600,303.600 35.455,303.600 35.279 C 303.600 35.102,302.703 34.517,301.606 33.979 C 300.510 33.440,299.610 32.865,299.606 32.700 C 299.603 32.535,299.364 32.400,299.075 32.400 C 298.787 32.400,298.164 32.040,297.692 31.600 C 297.220 31.160,296.556 30.800,296.217 30.800 C 295.878 30.800,295.600 30.620,295.600 30.400 C 295.600 30.180,295.240 30.000,294.800 30.000 C 294.360 30.000,294.000 29.860,294.000 29.688 C 294.000 29.516,291.885 28.327,289.300 27.045 C 286.715 25.763,284.287 24.553,283.905 24.357 C 283.523 24.161,282.928 24.000,282.582 24.000 C 282.236 24.000,282.064 23.820,282.200 23.600 C 282.340 23.373,282.004 23.200,281.424 23.200 C 280.861 23.200,280.400 23.020,280.400 22.800 C 280.400 22.580,279.950 22.400,279.400 22.400 C 278.850 22.400,278.400 22.220,278.400 22.000 C 278.400 21.780,278.040 21.600,277.600 21.600 C 277.160 21.600,276.800 21.453,276.800 21.272 C 276.800 21.092,275.908 20.702,274.818 20.405 C 273.728 20.108,272.910 19.746,273.000 19.600 C 273.090 19.454,272.272 19.092,271.182 18.795 C 270.092 18.498,269.200 18.108,269.200 17.928 C 269.200 17.747,268.660 17.600,268.000 17.600 C 267.340 17.600,266.800 17.420,266.800 17.200 C 266.800 16.980,266.438 16.800,265.995 16.800 C 265.552 16.800,264.877 16.641,264.495 16.447 C 263.267 15.822,261.844 15.303,260.000 14.807 C 259.010 14.540,257.887 14.160,257.505 13.961 C 257.123 13.762,256.358 13.600,255.805 13.600 C 255.252 13.600,254.800 13.420,254.800 13.200 C 254.800 12.980,254.181 12.800,253.424 12.800 C 252.667 12.800,251.936 12.620,251.800 12.400 C 251.664 12.180,251.034 12.000,250.400 12.000 C 249.766 12.000,249.136 11.820,249.000 11.600 C 248.864 11.380,248.144 11.200,247.400 11.200 C 246.656 11.200,245.948 11.040,245.827 10.844 C 245.706 10.649,244.931 10.374,244.104 10.233 C 241.170 9.736,238.186 9.199,237.200 8.991 C 236.650 8.874,234.805 8.668,233.100 8.533 C 231.395 8.397,230.000 8.131,230.000 7.943 C 230.000 7.754,228.931 7.600,227.624 7.600 C 226.317 7.600,225.136 7.420,225.000 7.200 C 224.863 6.979,223.063 6.800,220.976 6.800 C 218.725 6.800,217.200 6.638,217.200 6.400 C 217.200 6.139,211.133 6.000,199.800 6.000 C 188.467 6.000,182.400 6.139,182.400 6.400 M174.300 109.495 C 175.455 109.576,177.345 109.576,178.500 109.495 C 179.655 109.414,178.710 109.348,176.400 109.348 C 174.090 109.348,173.145 109.414,174.300 109.495 M166.200 110.000 L 164.600 110.286 166.200 110.303 C 167.080 110.313,168.250 110.176,168.800 110.000 L 169.800 109.680 168.800 109.697 C 168.250 109.706,167.080 109.842,166.200 110.000 M184.400 110.000 C 184.950 110.176,186.390 110.314,187.600 110.307 L 189.800 110.293 187.800 109.982 C 184.973 109.541,183.001 109.552,184.400 110.000 M162.200 110.676 C 158.853 111.444,151.552 114.674,149.586 116.258 C 146.063 119.096,143.944 121.478,137.090 130.300 C 136.877 130.575,136.810 130.800,136.943 130.800 C 137.176 130.800,140.777 126.340,142.786 123.563 C 145.332 120.044,150.661 115.632,154.523 113.845 C 157.008 112.696,161.337 111.200,162.198 111.194 C 162.639 111.191,163.270 111.013,163.600 110.800 C 164.278 110.362,163.768 110.317,162.200 110.676 M191.400 110.800 C 191.840 110.989,192.920 111.136,193.800 111.126 L 195.400 111.108 193.800 110.777 C 192.920 110.595,191.840 110.448,191.400 110.451 L 190.600 110.456 191.400 110.800 M196.600 111.600 C 197.040 111.789,197.940 111.935,198.600 111.925 L 199.800 111.905 198.600 111.600 C 197.940 111.432,197.040 111.286,196.600 111.275 L 195.800 111.256 196.600 111.600 M201.000 112.378 C 201.660 112.570,203.190 112.931,204.400 113.180 C 205.610 113.429,207.230 113.797,208.000 113.998 C 214.840 115.778,220.942 117.192,221.101 117.033 C 221.207 116.926,220.778 116.718,220.147 116.570 C 219.516 116.422,218.100 116.061,217.000 115.768 C 214.580 115.125,214.340 115.066,209.800 114.006 C 207.820 113.544,205.570 113.008,204.800 112.816 C 202.738 112.302,199.424 111.920,201.000 112.378 M224.000 118.029 C 225.430 118.451,226.780 118.781,227.000 118.762 C 227.608 118.709,222.688 117.207,222.000 117.236 C 221.670 117.250,222.570 117.607,224.000 118.029 M228.200 119.200 C 229.396 119.714,230.395 119.714,229.600 119.200 C 229.270 118.987,228.640 118.822,228.200 118.834 L 227.400 118.856 228.200 119.200 M231.000 120.000 C 232.196 120.514,233.195 120.514,232.400 120.000 C 232.070 119.787,231.440 119.622,231.000 119.634 L 230.200 119.656 231.000 120.000 M234.000 120.800 C 235.368 121.238,236.419 121.238,235.400 120.800 C 234.960 120.611,234.240 120.462,233.800 120.468 C 233.157 120.477,233.196 120.543,234.000 120.800 M237.000 121.600 C 237.440 121.789,238.070 121.944,238.400 121.944 C 238.778 121.944,238.704 121.817,238.200 121.600 C 237.760 121.411,237.130 121.256,236.800 121.256 C 236.422 121.256,236.496 121.383,237.000 121.600 M239.800 122.400 C 240.240 122.589,240.870 122.744,241.200 122.744 C 241.578 122.744,241.504 122.617,241.000 122.400 C 240.560 122.211,239.930 122.056,239.600 122.056 C 239.222 122.056,239.296 122.183,239.800 122.400 M243.000 123.200 C 243.440 123.389,244.070 123.544,244.400 123.544 C 244.778 123.544,244.704 123.417,244.200 123.200 C 243.760 123.011,243.130 122.856,242.800 122.856 C 242.422 122.856,242.496 122.983,243.000 123.200 M269.337 129.000 C 269.339 130.760,269.409 131.430,269.493 130.489 C 269.578 129.549,269.577 128.109,269.491 127.289 C 269.405 126.470,269.336 127.240,269.337 129.000 M260.900 126.691 C 261.725 126.778,263.075 126.778,263.900 126.691 C 264.725 126.605,264.050 126.534,262.400 126.534 C 260.750 126.534,260.075 126.605,260.900 126.691 M134.162 134.100 C 132.881 135.695,132.114 136.775,132.458 136.500 C 133.191 135.913,136.938 131.200,136.672 131.200 C 136.572 131.200,135.442 132.505,134.162 134.100 M268.931 135.400 C 268.933 136.940,269.005 137.521,269.092 136.691 C 269.179 135.861,269.177 134.601,269.089 133.891 C 269.000 133.181,268.929 133.860,268.931 135.400 M131.044 137.951 C 130.497 138.556,130.391 139.315,130.502 141.851 L 130.639 145.000 130.720 141.831 C 130.778 139.531,130.981 138.463,131.462 137.931 C 131.826 137.529,132.034 137.200,131.924 137.200 C 131.814 137.200,131.418 137.538,131.044 137.951 M130.920 147.600 C 130.920 148.810,130.995 149.305,131.087 148.700 C 131.178 148.095,131.178 147.105,131.087 146.500 C 130.995 145.895,130.920 146.390,130.920 147.600 M268.534 149.200 C 268.534 150.850,268.605 151.525,268.691 150.700 C 268.778 149.875,268.778 148.525,268.691 147.700 C 268.605 146.875,268.534 147.550,268.534 149.200 M268.134 155.600 C 268.134 157.250,268.205 157.925,268.291 157.100 C 268.378 156.275,268.378 154.925,268.291 154.100 C 268.205 153.275,268.134 153.950,268.134 155.600 M121.256 155.600 C 121.256 155.930,121.411 156.560,121.600 157.000 C 121.817 157.504,121.944 157.578,121.944 157.200 C 121.944 156.870,121.789 156.240,121.600 155.800 C 121.383 155.296,121.256 155.222,121.256 155.600 M131.324 157.800 C 131.326 159.120,131.401 159.612,131.490 158.893 C 131.579 158.174,131.577 157.094,131.486 156.493 C 131.395 155.892,131.322 156.480,131.324 157.800 M131.709 162.000 C 131.709 162.990,131.787 163.395,131.882 162.900 C 131.978 162.405,131.978 161.595,131.882 161.100 C 131.787 160.605,131.709 161.010,131.709 162.000 M267.731 168.200 C 267.733 169.740,267.805 170.321,267.892 169.491 C 267.979 168.661,267.977 167.401,267.889 166.691 C 267.800 165.981,267.729 166.660,267.731 168.200 M132.114 169.400 C 132.117 170.500,132.195 170.903,132.287 170.295 C 132.379 169.686,132.377 168.786,132.282 168.295 C 132.187 167.803,132.111 168.300,132.114 169.400 M132.493 172.800 C 132.493 173.570,132.575 173.885,132.676 173.500 C 132.776 173.115,132.776 172.485,132.676 172.100 C 132.575 171.715,132.493 172.030,132.493 172.800 M267.331 174.600 C 267.333 176.140,267.405 176.721,267.492 175.891 C 267.579 175.061,267.577 173.801,267.489 173.091 C 267.400 172.381,267.329 173.060,267.331 174.600 M126.244 176.600 C 126.573 178.071,126.802 178.390,126.794 177.367 C 126.791 176.945,126.605 176.330,126.382 176.000 C 126.085 175.562,126.048 175.724,126.244 176.600 M132.901 178.600 C 132.905 179.480,132.987 179.793,133.083 179.295 C 133.179 178.798,133.175 178.078,133.075 177.695 C 132.975 177.313,132.896 177.720,132.901 178.600 M273.099 180.744 C 272.871 181.616,272.699 181.660,270.028 181.534 C 268.471 181.460,267.199 181.535,267.199 181.700 C 267.200 181.865,268.438 182.000,269.951 182.000 C 272.738 182.000,273.886 181.459,273.508 180.324 C 273.416 180.047,273.232 180.236,273.099 180.744 M133.069 180.964 C 132.904 181.393,132.070 181.602,130.120 181.703 L 127.400 181.843 130.257 181.922 C 132.900 181.994,134.312 181.378,133.459 180.525 C 133.371 180.437,133.195 180.635,133.069 180.964 M207.071 318.900 C 207.415 320.688,208.400 322.178,208.400 320.913 C 208.400 320.437,208.220 319.936,208.000 319.800 C 207.780 319.664,207.600 319.113,207.600 318.576 C 207.600 318.039,207.424 317.600,207.210 317.600 C 206.985 317.600,206.926 318.151,207.071 318.900  M -25 0 L -5 0 L -5 20 L -25 20 Z M 405 0 L 425 0 L 425 20 L 405 20 Z" stroke="none" fill="#c35c44" fill-rule="evenodd" transform="translate(490,0)"></path><path id="path2" d="M185.600 45.831 C 169.668 47.138,152.282 53.688,139.891 63.050 C 120.950 77.362,111.897 100.090,114.407 127.031 C 114.954 132.899,116.572 142.357,117.618 145.800 C 117.819 146.460,118.379 148.350,118.864 150.000 C 119.348 151.650,120.155 153.500,120.656 154.112 C 121.158 154.723,121.679 155.893,121.814 156.712 C 121.950 157.530,122.208 158.650,122.387 159.200 C 122.567 159.750,122.933 161.280,123.200 162.600 C 123.467 163.920,123.824 165.450,123.993 166.000 C 124.162 166.550,124.511 167.990,124.767 169.200 C 125.024 170.410,125.406 172.075,125.617 172.900 C 125.828 173.725,126.172 175.075,126.383 175.900 C 126.594 176.725,126.988 178.345,127.259 179.500 L 127.751 181.600 130.252 181.600 C 133.314 181.600,133.168 181.883,132.744 176.800 C 132.037 168.315,131.574 161.634,131.218 154.800 C 131.017 150.950,130.725 145.800,130.569 143.356 L 130.284 138.913 133.642 134.704 C 135.489 132.389,138.687 128.319,140.749 125.659 C 144.094 121.345,146.739 118.528,149.579 116.258 C 159.066 108.674,181.012 107.288,204.600 112.784 C 215.218 115.257,215.793 115.404,227.500 118.635 C 228.765 118.984,230.340 119.417,231.000 119.599 C 231.660 119.780,233.550 120.305,235.200 120.766 C 254.254 126.087,264.053 127.511,267.920 125.520 C 269.696 124.607,269.789 124.931,269.427 130.741 C 269.268 133.304,268.983 139.630,268.796 144.800 C 268.608 149.970,268.227 159.330,267.948 165.600 C 267.670 171.870,267.433 177.990,267.421 179.200 L 267.400 181.400 270.103 181.518 C 273.272 181.657,273.026 181.985,274.410 175.773 C 274.897 173.588,275.436 171.170,275.608 170.400 C 275.780 169.630,276.321 167.200,276.810 165.000 C 277.299 162.800,277.869 160.280,278.075 159.400 C 278.281 158.520,278.550 157.260,278.673 156.600 C 278.797 155.940,279.164 155.095,279.490 154.723 C 279.816 154.350,280.246 152.640,280.444 150.923 C 280.643 149.205,280.989 146.180,281.213 144.200 C 281.625 140.566,282.105 136.464,282.805 130.600 C 283.015 128.840,283.368 124.700,283.589 121.400 C 283.810 118.100,284.087 114.714,284.204 113.875 C 284.980 108.329,282.363 96.511,278.921 90.024 C 271.716 76.443,253.878 63.640,228.200 53.619 C 227.760 53.448,226.950 53.121,226.400 52.893 C 224.712 52.193,221.075 50.880,219.600 50.437 C 218.830 50.206,217.120 49.679,215.800 49.265 C 212.792 48.323,207.971 47.252,203.000 46.423 C 200.418 45.992,188.556 45.589,185.600 45.831  M -25 0 L -5 0 L -5 20 L -25 20 Z M 405 0 L 425 0 L 425 20 L 405 20 Z" stroke="none" fill="#443c35" fill-rule="evenodd" transform="translate(950,0)"></path><path id="path3" d="M160.947 277.285 C 160.782 277.552,160.493 278.587,160.305 279.585 C 159.890 281.789,159.367 284.390,158.854 286.800 C 158.643 287.790,158.298 289.500,158.088 290.600 C 157.399 294.209,157.106 294.593,154.131 295.779 C 152.629 296.377,150.860 297.111,150.200 297.409 C 149.540 297.706,147.830 298.423,146.400 299.000 C 144.970 299.577,143.260 300.295,142.600 300.594 C 141.940 300.893,140.410 301.526,139.200 302.000 C 137.990 302.474,136.415 303.118,135.700 303.431 C 134.985 303.744,133.815 304.249,133.100 304.553 C 132.385 304.856,131.080 305.415,130.200 305.793 C 129.320 306.172,128.240 306.625,127.800 306.801 C 127.360 306.977,126.147 307.498,125.104 307.960 C 124.062 308.422,123.115 308.800,123.000 308.800 C 122.885 308.800,121.938 309.181,120.896 309.647 C 119.853 310.112,118.460 310.720,117.800 310.998 C 114.333 312.458,109.256 314.574,104.800 316.419 C 98.727 318.933,97.919 319.275,95.504 320.353 C 94.462 320.819,93.515 321.200,93.400 321.200 C 93.285 321.200,92.338 321.578,91.296 322.040 C 90.253 322.502,88.950 323.063,88.400 323.287 C 87.850 323.510,87.087 323.852,86.705 324.047 C 86.323 324.241,85.768 324.400,85.471 324.400 C 84.926 324.400,80.472 325.753,79.000 326.366 C 74.161 328.380,68.898 331.721,65.580 334.884 C 62.683 337.646,62.536 338.096,64.076 339.484 C 64.757 340.098,66.475 341.725,67.892 343.100 C 69.310 344.475,70.645 345.600,70.857 345.600 C 71.070 345.600,72.304 346.680,73.600 348.000 C 74.896 349.320,76.106 350.400,76.290 350.400 C 76.473 350.400,76.883 350.760,77.200 351.200 C 77.517 351.640,77.962 352.003,78.188 352.006 C 78.415 352.010,79.581 352.910,80.779 354.006 C 81.978 355.103,83.110 356.000,83.296 356.000 C 83.482 356.000,84.031 356.372,84.517 356.826 C 85.003 357.281,85.985 357.931,86.700 358.272 C 87.415 358.613,88.000 359.051,88.000 359.246 C 88.000 359.441,88.320 359.600,88.712 359.600 C 89.103 359.600,89.683 359.960,90.000 360.400 C 90.317 360.840,90.807 361.200,91.088 361.200 C 91.370 361.200,91.600 361.350,91.600 361.532 C 91.600 361.715,92.095 362.119,92.700 362.430 C 93.305 362.740,94.091 363.311,94.447 363.697 C 94.803 364.084,95.348 364.400,95.659 364.400 C 95.969 364.400,96.483 364.760,96.800 365.200 C 97.117 365.640,97.697 366.000,98.088 366.000 C 98.480 366.000,98.800 366.180,98.800 366.400 C 98.800 366.620,99.120 366.800,99.512 366.800 C 99.903 366.800,100.483 367.160,100.800 367.600 C 101.117 368.040,101.697 368.400,102.088 368.400 C 102.480 368.400,102.800 368.580,102.800 368.800 C 102.800 369.020,103.160 369.200,103.600 369.200 C 104.040 369.200,104.400 369.345,104.400 369.521 C 104.400 369.698,105.297 370.283,106.394 370.821 C 107.490 371.360,108.390 371.935,108.394 372.100 C 108.397 372.265,108.760 372.400,109.200 372.400 C 109.640 372.400,110.000 372.610,110.000 372.867 C 110.000 373.123,110.110 373.224,110.244 373.089 C 110.378 372.955,111.193 373.291,112.055 373.835 C 112.918 374.379,114.158 374.932,114.812 375.062 C 115.465 375.193,116.000 375.457,116.000 375.650 C 116.000 375.843,116.360 376.000,116.800 376.000 C 117.240 376.000,117.600 376.180,117.600 376.400 C 117.600 376.620,117.949 376.800,118.376 376.800 C 118.803 376.800,119.264 376.980,119.400 377.200 C 119.536 377.420,120.087 377.600,120.624 377.600 C 121.161 377.600,121.600 377.780,121.600 378.000 C 121.600 378.220,121.960 378.400,122.400 378.400 C 122.840 378.400,123.200 378.580,123.200 378.800 C 123.200 379.020,123.560 379.200,124.000 379.200 C 124.440 379.200,124.800 379.380,124.800 379.600 C 124.800 379.820,125.250 380.000,125.800 380.000 C 126.350 380.000,126.800 380.180,126.800 380.400 C 126.800 380.620,127.250 380.800,127.800 380.800 C 128.350 380.800,128.800 380.980,128.800 381.200 C 128.800 381.420,129.250 381.600,129.800 381.600 C 130.350 381.600,130.800 381.780,130.800 382.000 C 130.800 382.220,131.340 382.400,132.000 382.400 C 132.660 382.400,133.200 382.580,133.200 382.800 C 133.200 383.020,133.562 383.200,134.005 383.200 C 134.448 383.200,135.168 383.380,135.605 383.600 C 136.042 383.820,136.758 384.180,137.195 384.400 C 137.632 384.620,138.352 384.800,138.795 384.800 C 139.238 384.800,139.600 384.980,139.600 385.200 C 139.600 385.420,140.219 385.600,140.976 385.600 C 141.733 385.600,142.464 385.780,142.600 386.000 C 142.736 386.220,143.199 386.400,143.629 386.400 C 144.059 386.400,144.723 386.558,145.105 386.751 C 146.261 387.335,148.604 388.000,149.505 388.000 C 149.971 388.000,150.452 388.161,150.574 388.358 C 150.695 388.555,151.471 388.810,152.297 388.925 C 153.124 389.040,154.610 389.338,155.600 389.585 C 156.590 389.833,158.110 390.130,158.978 390.246 C 159.846 390.361,160.854 390.615,161.216 390.809 C 161.579 391.003,163.524 391.286,165.538 391.438 C 167.552 391.590,169.200 391.869,169.200 392.057 C 169.200 392.246,170.460 392.400,172.000 392.400 C 173.600 392.400,174.800 392.571,174.800 392.800 C 174.800 393.033,176.115 393.200,177.945 393.200 L 181.091 393.200 181.520 390.900 C 181.924 388.740,182.287 386.426,183.200 380.200 C 183.782 376.233,184.377 372.272,184.807 369.502 C 185.020 368.126,185.481 365.020,185.831 362.600 C 186.180 360.180,186.633 357.120,186.837 355.800 C 187.041 354.480,187.368 352.230,187.565 350.800 C 187.762 349.370,188.421 344.780,189.028 340.600 C 190.119 333.099,190.124 332.958,189.463 329.730 L 188.793 326.461 191.009 319.930 C 192.228 316.339,193.528 312.500,193.897 311.400 C 194.266 310.300,194.710 309.340,194.884 309.267 C 195.058 309.193,195.200 308.898,195.200 308.610 C 195.200 308.322,196.006 307.190,196.991 306.095 L 198.782 304.103 194.291 301.792 C 191.821 300.521,189.350 299.174,188.800 298.798 C 188.250 298.422,187.614 298.043,187.387 297.957 C 186.473 297.610,178.991 293.005,178.867 292.713 C 178.793 292.541,178.512 292.400,178.242 292.400 C 177.972 292.400,177.402 292.084,176.975 291.699 C 176.549 291.313,174.480 289.701,172.379 288.118 C 167.754 284.632,163.937 280.918,162.551 278.552 C 161.419 276.620,161.378 276.588,160.947 277.285 M237.800 278.519 C 236.812 280.596,232.553 284.884,228.923 287.457 C 227.425 288.519,225.851 289.705,225.425 290.094 C 224.998 290.482,224.413 290.800,224.125 290.800 C 223.836 290.800,223.600 290.950,223.600 291.132 C 223.600 291.315,223.105 291.720,222.500 292.032 C 221.895 292.344,221.310 292.689,221.200 292.799 C 221.090 292.910,220.550 293.258,220.000 293.573 C 219.450 293.888,217.592 295.013,215.871 296.073 C 214.149 297.133,212.694 298.000,212.635 298.000 C 212.577 298.000,210.474 299.125,207.962 300.500 C 205.449 301.875,202.904 303.254,202.305 303.564 L 201.215 304.127 202.736 305.776 C 203.572 306.684,204.757 308.500,205.370 309.813 C 206.867 313.021,207.016 313.395,207.993 316.400 C 208.457 317.830,209.009 319.313,209.219 319.695 C 209.429 320.077,209.600 320.743,209.600 321.176 C 209.600 321.608,209.757 322.376,209.949 322.881 C 211.220 326.230,211.266 326.745,210.556 329.669 L 209.859 332.536 211.389 343.168 C 212.230 349.016,213.056 354.700,213.224 355.800 C 213.392 356.900,213.813 359.780,214.158 362.200 C 214.504 364.620,214.974 367.814,215.202 369.298 C 215.742 372.798,216.264 376.268,216.814 380.000 C 217.777 386.542,218.017 388.099,218.445 390.600 L 218.891 393.200 221.845 393.200 C 223.548 393.200,224.800 393.031,224.800 392.800 C 224.800 392.574,225.933 392.400,227.400 392.400 C 228.830 392.400,230.000 392.246,230.000 392.057 C 230.000 391.869,231.831 391.588,234.069 391.434 C 236.308 391.280,238.456 390.984,238.843 390.777 C 239.230 390.570,240.189 390.400,240.974 390.400 C 241.758 390.400,242.400 390.238,242.400 390.040 C 242.400 389.842,243.165 389.589,244.100 389.476 C 245.035 389.364,246.610 389.062,247.600 388.807 C 248.590 388.551,249.985 388.246,250.700 388.127 C 251.415 388.009,252.000 387.752,252.000 387.556 C 252.000 387.360,252.619 387.200,253.376 387.200 C 254.133 387.200,254.864 387.020,255.000 386.800 C 255.136 386.580,255.676 386.400,256.200 386.400 C 256.724 386.400,257.264 386.220,257.400 386.000 C 257.536 385.780,258.087 385.600,258.624 385.600 C 259.161 385.600,259.600 385.420,259.600 385.200 C 259.600 384.980,260.140 384.800,260.800 384.800 C 261.460 384.800,262.000 384.620,262.000 384.400 C 262.000 384.180,262.540 384.000,263.200 384.000 C 263.860 384.000,264.400 383.820,264.400 383.600 C 264.400 383.380,264.940 383.200,265.600 383.200 C 266.260 383.200,266.800 383.020,266.800 382.800 C 266.800 382.580,267.340 382.400,268.000 382.400 C 268.660 382.400,269.200 382.220,269.200 382.000 C 269.200 381.780,269.560 381.600,270.000 381.600 C 270.440 381.600,270.800 381.420,270.800 381.200 C 270.800 380.980,271.155 380.800,271.588 380.800 C 272.021 380.800,273.017 380.440,273.800 380.000 C 274.583 379.560,275.579 379.200,276.012 379.200 C 276.445 379.200,276.800 379.020,276.800 378.800 C 276.800 378.580,277.160 378.400,277.600 378.400 C 278.040 378.400,278.400 378.220,278.400 378.000 C 278.400 377.780,278.760 377.600,279.200 377.600 C 279.640 377.600,280.000 377.420,280.000 377.200 C 280.000 376.980,280.439 376.800,280.976 376.800 C 281.513 376.800,282.064 376.620,282.200 376.400 C 282.336 376.180,282.797 376.000,283.224 376.000 C 283.651 376.000,284.000 375.820,284.000 375.600 C 284.000 375.380,284.277 375.200,284.615 375.200 C 285.424 375.200,292.400 371.550,292.400 371.127 C 292.400 370.947,292.760 370.800,293.200 370.800 C 293.640 370.800,294.000 370.620,294.000 370.400 C 294.000 370.180,294.360 370.000,294.800 370.000 C 295.240 370.000,295.600 369.820,295.600 369.600 C 295.600 369.380,295.878 369.200,296.217 369.200 C 296.556 369.200,297.220 368.840,297.692 368.400 C 298.164 367.960,298.787 367.600,299.075 367.600 C 299.364 367.600,299.600 367.420,299.600 367.200 C 299.600 366.980,299.878 366.800,300.217 366.800 C 300.556 366.800,301.220 366.440,301.692 366.000 C 302.164 365.560,302.787 365.200,303.075 365.200 C 303.364 365.200,303.600 365.020,303.600 364.800 C 303.600 364.580,303.836 364.400,304.125 364.400 C 304.413 364.400,305.036 364.040,305.508 363.600 C 305.980 363.160,306.554 362.800,306.783 362.800 C 307.012 362.800,307.200 362.650,307.200 362.468 C 307.200 362.285,307.695 361.881,308.300 361.570 C 308.905 361.260,309.691 360.689,310.047 360.303 C 310.403 359.916,310.905 359.600,311.164 359.600 C 311.422 359.600,311.851 359.417,312.117 359.193 C 313.921 357.671,314.557 357.200,314.807 357.200 C 314.964 357.200,315.701 356.663,316.446 356.006 C 317.191 355.350,317.927 354.810,318.082 354.806 C 318.237 354.803,318.814 354.350,319.364 353.800 C 319.914 353.250,320.508 352.800,320.684 352.800 C 320.860 352.800,321.769 352.080,322.703 351.200 C 323.637 350.320,324.490 349.600,324.598 349.600 C 324.706 349.600,326.069 348.340,327.628 346.800 C 329.186 345.260,330.624 344.000,330.822 344.000 C 331.782 344.000,337.161 338.274,336.812 337.623 C 336.207 336.492,332.172 332.759,329.680 331.024 C 325.589 328.178,316.949 324.400,314.530 324.400 C 314.234 324.400,313.138 324.022,312.096 323.560 C 311.053 323.098,309.840 322.576,309.400 322.400 C 308.960 322.224,307.747 321.702,306.704 321.240 C 305.662 320.778,304.715 320.400,304.600 320.400 C 304.485 320.400,303.538 320.019,302.496 319.553 C 300.486 318.656,300.132 318.505,294.800 316.274 C 292.930 315.492,289.457 314.030,287.082 313.026 C 284.707 312.022,282.680 311.200,282.578 311.200 C 282.475 311.200,281.538 310.819,280.496 310.353 C 279.453 309.888,278.015 309.258,277.300 308.953 C 276.585 308.649,275.325 308.112,274.500 307.759 C 273.675 307.407,272.640 306.975,272.200 306.800 C 271.760 306.625,270.725 306.193,269.900 305.841 C 269.075 305.488,267.725 304.912,266.900 304.559 C 266.075 304.207,265.040 303.775,264.600 303.599 C 264.160 303.423,262.947 302.902,261.904 302.440 C 260.862 301.978,259.922 301.600,259.816 301.600 C 259.710 301.600,258.640 301.150,257.437 300.600 C 256.235 300.050,255.058 299.600,254.821 299.600 C 254.585 299.600,253.538 299.222,252.496 298.760 C 251.453 298.298,250.240 297.777,249.800 297.601 C 249.360 297.425,248.370 297.010,247.600 296.679 C 244.032 295.143,243.090 294.821,242.762 295.023 C 242.568 295.143,242.509 294.980,242.632 294.661 C 242.754 294.342,242.662 293.962,242.427 293.817 C 242.192 293.672,242.000 292.764,242.000 291.800 C 242.000 290.836,241.820 289.936,241.600 289.800 C 241.380 289.664,241.200 288.879,241.200 288.056 C 241.200 287.233,241.038 286.389,240.841 286.180 C 240.644 285.971,240.380 285.080,240.256 284.200 C 239.703 280.278,239.529 279.351,239.204 278.600 C 239.014 278.160,238.800 277.583,238.729 277.319 C 238.658 277.054,238.240 277.594,237.800 278.519 M216.000 393.600 C 216.000 393.820,216.259 394.000,216.576 394.000 C 216.893 394.000,217.264 393.820,217.400 393.600 C 217.536 393.380,217.277 393.200,216.824 393.200 C 216.371 393.200,216.000 393.380,216.000 393.600 M199.400 394.400 C 199.536 394.620,199.907 394.800,200.224 394.800 C 200.541 394.800,200.800 394.620,200.800 394.400 C 200.800 394.180,200.429 394.000,199.976 394.000 C 199.523 394.000,199.264 394.180,199.400 394.400  M -25 0 L -5 0 L -5 20 L -25 20 Z M 405 0 L 425 0 L 425 20 L 405 20 Z" stroke="none" fill="#f7f0f0" fill-rule="evenodd" transform="translate(30,460)"></path><path id="path4" d="M168.800 109.985 C 168.250 110.169,167.093 110.338,166.228 110.360 C 164.617 110.401,164.218 110.498,159.400 112.014 C 152.562 114.167,146.527 118.365,142.786 123.572 C 142.244 124.327,139.306 128.075,136.258 131.903 L 130.717 138.861 130.975 145.931 C 131.117 149.819,131.399 155.340,131.601 158.200 C 132.572 171.933,132.921 176.388,133.197 178.600 C 133.362 179.920,133.410 181.225,133.305 181.500 C 133.041 182.191,127.744 182.191,127.465 181.500 C 127.347 181.207,127.250 181.297,127.232 181.716 C 127.203 182.358,127.543 182.420,130.500 182.316 L 133.800 182.200 133.735 180.600 C 133.699 179.720,133.472 176.660,133.231 173.800 C 132.989 170.940,132.624 165.810,132.421 162.400 C 132.217 158.990,131.955 155.480,131.839 154.600 C 131.722 153.720,131.541 149.805,131.435 145.899 L 131.243 138.799 132.870 136.899 C 134.841 134.597,142.960 125.875,146.000 122.794 C 159.116 109.499,183.699 108.640,227.400 119.948 C 228.280 120.176,230.620 120.748,232.600 121.221 C 234.580 121.693,236.740 122.239,237.400 122.435 C 240.400 123.323,248.807 125.197,249.656 125.166 C 250.175 125.147,248.260 124.540,245.400 123.817 C 242.540 123.094,234.890 121.061,228.400 119.298 C 221.910 117.536,214.980 115.704,213.000 115.228 C 211.020 114.752,208.770 114.202,208.000 114.006 C 206.160 113.539,203.560 112.974,200.600 112.399 C 199.280 112.142,197.840 111.847,197.400 111.742 C 196.281 111.476,191.598 110.795,187.800 110.345 C 183.418 109.826,170.029 109.572,168.800 109.985 M251.200 125.600 C 251.530 125.813,252.430 125.969,253.200 125.947 L 254.600 125.905 253.400 125.600 C 251.524 125.123,250.461 125.123,251.200 125.600 M268.455 125.558 C 268.124 125.767,268.075 125.961,268.331 126.052 C 268.767 126.205,268.536 135.294,267.523 157.800 C 267.256 163.740,267.029 171.660,267.019 175.400 L 267.000 182.200 270.167 182.200 C 272.633 182.200,273.374 182.067,273.517 181.600 C 273.665 181.116,273.598 181.096,273.170 181.500 C 272.851 181.801,271.534 182.000,269.858 182.000 L 267.076 182.000 267.358 174.900 C 267.513 170.995,267.802 163.930,267.999 159.200 C 268.195 154.470,268.545 145.290,268.776 138.800 C 269.006 132.310,269.289 126.595,269.405 126.100 C 269.627 125.148,269.350 124.990,268.455 125.558 M255.389 126.382 C 255.531 126.612,256.567 126.800,257.690 126.800 C 260.220 126.800,260.064 126.593,257.265 126.236 C 255.818 126.051,255.213 126.098,255.389 126.382 M266.000 126.400 L 265.000 126.720 266.076 126.760 C 266.668 126.782,267.264 126.620,267.400 126.400 C 267.681 125.945,267.420 125.945,266.000 126.400 M118.381 154.771 C 117.073 155.177,114.000 157.112,114.000 157.530 C 114.000 157.705,113.685 158.198,113.299 158.625 C 110.115 162.150,108.248 172.999,109.607 180.080 C 109.830 181.246,110.204 183.190,110.438 184.400 C 113.003 197.701,122.008 208.288,131.128 208.725 C 135.021 208.911,134.603 208.371,136.220 215.308 C 136.823 217.898,137.407 219.926,137.518 219.815 C 137.629 219.704,137.114 217.090,136.373 214.007 L 135.027 208.400 131.888 208.400 C 123.852 208.400,115.873 200.428,112.071 188.600 C 110.738 184.453,109.600 177.820,109.600 174.200 C 109.600 164.855,113.126 157.134,118.201 155.369 C 120.489 154.572,120.800 154.645,120.800 155.976 C 120.800 156.623,120.980 157.264,121.200 157.400 C 121.420 157.536,121.600 158.256,121.600 159.000 C 121.600 159.744,121.761 160.452,121.958 160.574 C 122.155 160.695,122.425 161.516,122.558 162.397 C 122.691 163.279,122.909 164.721,123.042 165.603 C 123.175 166.484,123.445 167.305,123.642 167.426 C 123.839 167.548,124.000 168.256,124.000 169.000 C 124.000 169.744,124.180 170.464,124.400 170.600 C 124.941 170.934,124.943 170.949,123.752 165.869 C 120.926 153.812,120.997 153.958,118.381 154.771 M281.400 155.200 C 281.536 155.420,281.964 155.600,282.352 155.600 C 285.120 155.600,288.640 161.539,289.819 168.200 C 290.934 174.500,290.197 181.881,287.723 189.200 C 283.779 200.867,276.083 208.400,268.108 208.400 L 264.965 208.400 264.448 210.900 C 264.163 212.275,263.750 213.881,263.530 214.468 C 263.309 215.056,263.200 215.866,263.286 216.268 C 263.372 216.671,263.883 215.200,264.421 213.000 L 265.400 209.000 268.800 208.777 C 277.069 208.236,284.302 200.906,288.317 189.000 C 289.085 186.723,289.399 185.424,290.379 180.469 C 291.871 172.925,290.118 163.062,286.396 158.061 C 285.048 156.249,280.405 153.591,281.400 155.200 M278.854 156.800 C 278.819 157.130,278.677 157.850,278.540 158.400 C 278.348 159.172,278.402 159.297,278.777 158.949 C 279.044 158.701,279.185 157.981,279.091 157.349 C 278.997 156.717,278.890 156.470,278.854 156.800 M278.054 160.400 C 278.019 160.730,277.877 161.450,277.740 162.000 C 277.548 162.772,277.602 162.897,277.977 162.549 C 278.244 162.301,278.385 161.581,278.291 160.949 C 278.197 160.317,278.090 160.070,278.054 160.400 M277.254 164.067 C 277.225 164.434,277.084 165.064,276.941 165.467 C 276.741 166.033,276.795 166.096,277.175 165.746 C 277.446 165.497,277.587 164.867,277.488 164.346 C 277.390 163.826,277.284 163.700,277.254 164.067 M276.454 167.667 C 276.425 168.034,276.284 168.664,276.141 169.067 C 275.941 169.633,275.995 169.696,276.375 169.346 C 276.646 169.097,276.787 168.467,276.688 167.946 C 276.590 167.426,276.484 167.300,276.454 167.667 M275.462 171.747 C 275.297 172.378,275.256 172.989,275.371 173.104 C 275.693 173.427,276.087 172.138,275.915 171.323 C 275.803 170.790,275.684 170.901,275.462 171.747 M125.023 172.600 C 125.499 176.267,125.704 177.217,126.068 177.442 C 126.501 177.710,126.196 175.747,125.355 172.854 L 124.815 171.000 125.023 172.600 M274.662 175.347 C 274.497 175.978,274.456 176.589,274.571 176.704 C 274.893 177.027,275.287 175.738,275.115 174.923 C 275.003 174.390,274.884 174.501,274.662 175.347 M126.440 179.076 C 126.418 179.778,126.580 180.464,126.800 180.600 C 127.260 180.884,127.260 180.236,126.800 178.800 C 126.494 177.845,126.478 177.857,126.440 179.076 M273.862 178.947 C 273.697 179.578,273.656 180.189,273.771 180.304 C 274.093 180.627,274.487 179.338,274.315 178.523 C 274.203 177.990,274.084 178.101,273.862 178.947 M262.688 217.733 C 262.530 218.136,262.411 218.856,262.425 219.333 C 262.449 220.156,262.471 220.150,262.840 219.225 C 263.054 218.689,263.173 217.969,263.103 217.625 C 262.999 217.111,262.925 217.130,262.688 217.733 M137.600 220.712 C 137.600 221.998,141.468 236.012,142.482 238.400 C 142.716 238.950,143.037 239.760,143.197 240.200 C 145.146 245.583,150.297 253.071,157.669 261.237 C 161.492 265.472,161.583 265.711,161.672 271.726 C 161.736 276.019,161.771 276.251,161.972 273.669 L 162.200 270.739 163.947 274.269 C 166.404 279.237,171.289 286.345,173.598 288.313 C 174.948 289.463,179.993 292.800,180.382 292.800 C 180.612 292.800,180.800 292.980,180.800 293.200 C 180.800 293.420,180.993 293.600,181.228 293.600 C 181.463 293.600,182.441 294.140,183.400 294.800 C 184.359 295.460,185.264 296.000,185.410 296.000 C 185.557 296.000,186.154 296.331,186.738 296.736 C 187.322 297.140,189.600 298.424,191.800 299.588 C 194.000 300.753,196.738 302.223,197.884 302.856 L 199.968 304.006 203.484 302.133 C 210.376 298.460,215.748 295.427,217.262 294.353 C 217.846 293.939,218.521 293.600,218.762 293.600 C 219.003 293.600,219.200 293.420,219.200 293.200 C 219.200 292.980,219.388 292.800,219.618 292.800 C 220.015 292.800,225.979 288.942,226.400 288.413 C 226.510 288.275,227.230 287.723,228.000 287.186 C 231.435 284.794,236.629 279.703,237.219 278.149 C 237.955 276.215,239.107 276.375,239.605 278.480 C 239.902 279.732,239.920 279.744,239.959 278.700 C 239.982 278.088,239.645 277.245,239.200 276.800 C 238.485 276.085,238.402 275.478,238.414 271.100 C 238.431 265.292,238.104 265.988,244.000 259.227 C 248.669 253.873,251.981 249.394,253.744 246.049 C 257.854 238.250,258.802 235.666,261.435 225.087 C 262.025 222.716,262.403 220.669,262.274 220.540 C 262.145 220.411,261.931 220.822,261.800 221.453 C 261.668 222.084,261.389 223.275,261.180 224.100 C 260.971 224.925,260.635 226.275,260.433 227.100 C 259.783 229.758,259.117 232.179,258.810 233.000 C 258.645 233.440,258.291 234.520,258.022 235.400 C 256.046 241.872,249.856 252.348,245.000 257.439 C 244.560 257.900,243.750 258.800,243.200 259.439 C 242.650 260.078,241.255 261.694,240.100 263.031 C 238.945 264.368,238.000 265.638,238.000 265.853 C 238.000 266.637,222.708 282.554,218.985 285.646 C 207.373 295.287,191.567 295.036,180.400 285.032 C 174.751 279.971,162.000 266.629,162.000 265.779 C 162.000 265.490,161.145 264.369,160.100 263.289 C 159.055 262.208,157.212 260.171,156.003 258.762 C 154.795 257.353,153.510 255.872,153.147 255.472 C 149.266 251.186,144.252 242.385,142.394 236.600 C 141.900 235.060,141.359 233.440,141.193 233.000 C 140.700 231.694,139.022 225.221,138.415 222.284 C 138.109 220.805,137.600 219.823,137.600 220.712 M160.480 276.880 C 160.216 277.144,160.021 277.729,160.046 278.180 C 160.092 278.983,160.097 278.984,160.289 278.200 C 160.398 277.760,160.669 277.175,160.892 276.900 C 161.410 276.262,161.112 276.248,160.480 276.880 M159.449 280.215 C 159.312 280.573,159.216 281.256,159.236 281.733 C 159.262 282.347,159.385 282.208,159.659 281.256 C 160.057 279.872,159.894 279.058,159.449 280.215 M240.046 280.600 C 240.115 282.231,240.715 283.587,240.754 282.200 C 240.773 281.540,240.613 280.730,240.400 280.400 C 240.081 279.906,240.018 279.941,240.046 280.600 M158.667 283.867 C 158.520 284.013,158.415 284.598,158.434 285.167 C 158.468 286.181,158.475 286.179,158.821 285.020 C 159.185 283.803,159.131 283.402,158.667 283.867 M240.853 284.200 C 240.876 284.640,241.032 285.540,241.200 286.200 L 241.505 287.400 241.547 286.000 C 241.569 285.230,241.413 284.330,241.200 284.000 C 240.881 283.506,240.820 283.542,240.853 284.200 M157.849 287.815 C 157.712 288.173,157.618 288.946,157.640 289.533 C 157.673 290.391,157.752 290.295,158.046 289.040 C 158.422 287.439,158.295 286.653,157.849 287.815 M241.653 288.200 C 241.676 288.640,241.832 289.540,242.000 290.200 L 242.305 291.400 242.347 290.000 C 242.369 289.230,242.213 288.330,242.000 288.000 C 241.681 287.506,241.620 287.542,241.653 288.200 M156.974 292.300 C 156.842 292.905,156.648 293.670,156.543 294.000 C 156.421 294.384,156.486 294.456,156.723 294.200 C 157.122 293.770,157.700 291.200,157.398 291.200 C 157.297 291.200,157.107 291.695,156.974 292.300 M242.446 292.000 C 242.465 292.330,242.624 293.050,242.800 293.600 L 243.120 294.600 243.154 293.600 C 243.173 293.050,243.013 292.330,242.800 292.000 C 242.455 291.467,242.416 291.467,242.446 292.000 M252.600 298.400 C 254.706 299.375,255.381 299.375,253.600 298.400 C 252.830 297.978,251.930 297.639,251.600 297.646 C 251.270 297.654,251.720 297.993,252.600 298.400 M140.600 300.778 C 139.720 301.195,139.113 301.550,139.251 301.568 C 139.640 301.618,142.400 300.414,142.400 300.195 C 142.400 299.927,142.399 299.927,140.600 300.778 M257.600 300.189 C 257.600 300.506,260.500 301.633,260.728 301.405 C 260.841 301.292,260.835 301.200,260.716 301.200 C 260.596 301.200,259.846 300.928,259.049 300.595 C 258.252 300.262,257.600 300.079,257.600 300.189 M137.300 302.012 C 135.961 302.551,136.211 302.824,137.600 302.340 C 138.260 302.110,138.800 301.849,138.800 301.761 C 138.800 301.524,138.313 301.605,137.300 302.012 M264.415 303.142 C 265.332 303.742,269.464 305.316,269.000 304.889 C 268.640 304.557,265.933 303.402,264.400 302.926 C 263.892 302.768,263.894 302.801,264.415 303.142 M132.933 303.922 C 132.016 304.295,131.116 304.751,130.933 304.936 C 130.512 305.360,134.066 303.999,134.580 303.540 C 135.093 303.081,134.880 303.131,132.933 303.922 M197.892 305.706 C 195.803 307.499,192.630 314.486,191.717 319.305 C 191.602 319.913,191.349 320.508,191.154 320.629 C 190.959 320.749,190.800 321.251,190.800 321.744 C 190.800 322.237,190.650 322.811,190.467 323.020 C 189.046 324.644,189.134 327.997,190.691 331.546 C 191.063 332.394,191.181 333.357,191.010 334.146 C 190.686 335.640,190.057 339.602,189.572 343.200 C 189.379 344.630,189.040 346.970,188.819 348.400 C 188.026 353.528,187.597 356.639,187.357 359.000 C 187.223 360.320,186.953 361.571,186.757 361.780 C 186.560 361.989,186.400 363.283,186.400 364.656 C 186.400 366.029,186.220 367.264,186.000 367.400 C 185.780 367.536,185.600 368.681,185.600 369.944 C 185.600 371.207,185.435 372.411,185.234 372.620 C 185.032 372.829,184.762 374.125,184.634 375.500 C 184.505 376.875,184.295 379.125,184.166 380.500 C 184.038 381.875,183.768 383.171,183.566 383.380 C 183.365 383.589,183.200 384.793,183.200 386.056 C 183.200 387.319,183.020 388.464,182.800 388.600 C 182.318 388.898,182.278 391.588,182.744 392.323 C 183.203 393.046,216.162 393.095,217.031 392.374 C 217.663 391.850,217.806 389.174,217.234 388.580 C 217.032 388.371,216.771 387.120,216.652 385.800 C 216.534 384.480,216.242 382.140,216.002 380.600 C 215.763 379.060,215.476 376.810,215.366 375.600 C 215.255 374.390,215.000 373.040,214.800 372.600 C 214.600 372.160,214.345 370.810,214.234 369.600 C 214.124 368.390,213.851 366.230,213.629 364.800 C 213.406 363.370,213.046 360.940,212.828 359.400 C 212.611 357.860,212.233 355.250,211.989 353.600 C 211.745 351.950,211.386 349.520,211.191 348.200 C 210.182 341.381,210.025 340.033,210.013 338.100 C 210.005 336.860,209.822 336.000,209.564 336.000 C 208.966 336.000,209.296 332.018,210.137 329.078 C 210.743 326.959,210.747 326.573,210.184 324.678 C 204.921 306.985,201.877 302.286,197.892 305.706 M207.600 318.576 C 207.600 319.113,207.780 319.664,208.000 319.800 C 208.220 319.936,208.400 320.437,208.400 320.913 C 208.400 321.762,208.390 321.763,207.861 320.989 C 207.156 319.958,206.703 317.600,207.210 317.600 C 207.424 317.600,207.600 318.039,207.600 318.576 M302.600 319.109 C 302.820 319.313,303.810 319.791,304.800 320.170 C 305.790 320.550,306.420 320.695,306.200 320.491 C 305.980 320.287,304.990 319.809,304.000 319.430 C 303.010 319.050,302.380 318.905,302.600 319.109 M94.900 319.834 C 94.185 320.146,93.600 320.494,93.600 320.607 C 93.600 320.815,96.406 319.727,96.746 319.387 C 97.086 319.047,96.220 319.257,94.900 319.834 M308.854 321.787 C 309.190 322.123,312.000 323.216,312.000 323.011 C 312.000 322.901,311.348 322.538,310.551 322.205 C 309.075 321.589,308.518 321.451,308.854 321.787 M314.800 324.155 C 314.800 324.240,315.330 324.387,315.979 324.482 C 316.627 324.577,317.067 324.508,316.955 324.328 C 316.757 324.007,314.800 323.850,314.800 324.155 M327.200 328.901 C 327.310 329.026,328.390 329.802,329.600 330.626 C 330.810 331.450,331.489 331.772,331.109 331.341 C 330.730 330.910,329.650 330.134,328.709 329.616 C 327.769 329.099,327.090 328.777,327.200 328.901 M69.585 330.832 L 68.200 332.063 69.488 331.213 C 70.630 330.459,71.493 329.600,71.108 329.600 C 71.032 329.600,70.347 330.154,69.585 330.832 M65.400 334.233 L 63.000 336.465 65.500 334.373 C 67.723 332.512,68.243 331.998,67.900 332.001 C 67.845 332.001,66.720 333.006,65.400 334.233 M333.400 333.366 C 334.280 334.167,335.517 335.403,336.148 336.112 C 336.957 337.019,337.125 337.111,336.715 336.423 C 336.395 335.886,335.158 334.650,333.967 333.677 C 332.625 332.581,332.409 332.463,333.400 333.366  M -25 0 L -5 0 L -5 20 L -25 20 Z M 405 0 L 425 0 L 425 20 L 405 20 Z" stroke="none" fill="#d0a16d" fill-rule="evenodd" transform="translate(490,460)"></path></g></svg>